<svg width="2615" height="2036" xmlns="http://www.w3.org/2000/svg" xmlns:xlink="http://www.w3.org/1999/xlink" xml:space="preserve" overflow="hidden"><g transform="translate(70 -400)"><path d="M1423.25 888.5C1423.25 888.5 1523.04 891.151 1526.7 893.802 1530.37 896.453 1543.15 907.025 1545.58 918.669 1548.01 930.314 1548.63 944.578 1563.22 946.693 1577.82 948.807 1618 943 1630.78 946.693 1643.56 950.385 1652.67 961.493 1654.52 969.982 1656.33 978.44 1658.77 993.272 1666.06 996.964 1673.36 1000.66 1692.85 1027.64 1694.67 1038.21 1696.48 1048.78 1702.58 1050.39 1717.17 1054.08 1731.77 1057.78 1737.87 1063.08 1736.05 1069.42 1734.24 1075.76 1746.4 1082.64 1750.64 1088.45 1754.89 1094.26 1770.72 1100.63 1774.38 1103.79 1778.05 1106.97 1788.4 1115.97 1795.69 1121.78 1802.99 1127.58 1820.01 1125.47 1819.43 1136.07 1818.82 1146.64 1818.82 1152.48 1825.53 1157.21 1832.21 1161.98 1838.93 1158.79 1838.93 1167.25 1838.93 1175.71 1843.17 1204.27 1835.88 1204.8 1828.58 1205.34 1824.33 1188.93 1820.05 1196.88 1815.8 1204.8 1825.53 1221.75 1831.59 1226.52 1837.69 1231.28 1846.19 1249.8 1849.24 1256.15 1852.29 1262.49 1865.68 1273.06 1869.31 1276.25 1872.98 1279.44 1880.27 1291.05 1882.71 1299.54 1885.14 1308 1890 1326.52 1894.87 1331.79 1899.73 1337.09 1919.8 1357.7 1929.53 1363 1939.26 1368.3 1951.42 1360.89 1958.76 1363 1966.05 1365.12 1970.92 1371.46 1975.2 1372 1979.45 1372.53 1986.16 1354.01 1989.79 1357.7 1993.46 1361.39 1992.23 1375.15 1986.74 1376.73 1981.26 1378.31 1974.58 1379.92 1972.73 1384.15 1970.92 1388.37 1970.92 1395.25 1977.6 1394.72 1984.28 1394.18 1996.47 1394.72 1996.47 1394.72 1996.47 1394.72 1999.52 1399.45 1999.52 1401.03 1999.52 1402.61 2002.57 1420.6 2005.62 1423.25 2008.67 1425.9 2037.85 1450.76 2037.85 1450.76 2037.85 1450.76 2115.76 1529.06 2118.77 1529.6 2121.82 1530.13 2264.19 1542.28 2264.19 1542.28L2381.62 1550.74C2381.62 1550.74 2402.31 1551.81 2409.61 1550.74 2416.91 1549.67 2425.44 1551.81 2432.73 1559.73 2440.03 1567.65 2473.5 1611.05 2473.5 1611.05L2451.61 1684.58 2423.62 1785.09C2423.62 1785.09 2415.09 1830.06 2396.25 1836.4 2377.38 1842.74 2163.2 1918.92 2146.79 1924.19 2130.35 1929.5 2016.58 1968.63 2006.85 1968.09 1997.13 1967.55 1896.1 1979.2 1866.91 1982.39 1837.69 1985.57 1749.48 1991.92 1739.14 1995.07 1728.79 1998.26 1668.57 2029.47 1652.12 2032.63 1635.68 2035.81 1609.54 2061.72 1599.2 2071.25 1588.85 2080.78 1569.97 2104.04 1568.16 2105.65 1566.34 2107.23 1548.09 2130.52 1546.27 2135.28 1544.45 2140.05 1535.31 2157.5 1535.31 2157.5L1559.05 1986.11 1573.06 1902.55 1606.53 1646.52 1628.42 1500.53C1628.42 1500.53 1639.38 1449.22 1634.52 1437.07 1629.65 1424.89 1616.88 1398.98 1596.8 1386.29 1576.73 1373.61 1549.94 1360.38 1545.07 1350.32 1540.21 1340.28 1537.78 1304.81 1538.39 1291.59 1539.01 1278.36 1537.16 1234.47 1538.39 1221.75 1539.63 1209.06 1538.39 1187.89 1523.18 1182.62 1507.97 1177.32 1494.58 1173.62 1490.95 1170.97 1487.28 1168.32 1481.22 1150.33 1464.16 1149.29 1447.13 1148.22 1437.98 1151.41 1430.69 1147.18 1423.39 1142.95 1398.45 1127.08 1389.92 1126.04 1381.39 1124.99 1361.93 1126.04 1354.64 1119.69 1347.34 1113.35 1336.38 1103.28 1316.92 1096.94 1297.46 1090.6 1286.5 1086.9 1284.69 1079.49 1282.87 1072.07 1272.93 1060.08 1269.48 1056.39 1266.03 1052.7 1260.15 1040.36 1261.78 1036.29 1263.41 1032.21 1281.67 1009.15 1286.1 1004.89 1290.53 1000.62 1311.04 970.866 1313.29 964.87 1315.51 958.874 1340.37 926.622 1344.33 922.898 1348.29 919.206 1357.72 910.717 1365.93 907.813 1374.13 904.91 1383.57 903.837 1391.48 901.723 1399.4 899.609 1423.43 888.5 1423.43 888.5Z" stroke="#0B4332" stroke-width="4.58333" stroke-miterlimit="8" fill="#009C6D" fill-rule="evenodd"/><path d="M1269.54 1055.8C1272.99 1059.49 1282.93 1071.49 1284.74 1078.91 1286.55 1086.32 1297.51 1090.02 1316.95 1096.36 1336.39 1102.7 1347.34 1112.77 1354.63 1119.12 1361.92 1125.46 1381.4 1124.42 1389.88 1125.46 1398.41 1126.53 1423.32 1142.38 1430.61 1146.61 1437.9 1150.84 1447.04 1147.68 1464.05 1148.72 1481.06 1149.79 1487.15 1167.75 1490.82 1170.4 1494.48 1173.06 1507.83 1176.75 1523.02 1182.05 1538.22 1187.35 1539.45 1208.5 1538.22 1221.19 1536.99 1233.88 1538.84 1277.81 1538.22 1291.03 1537.6 1304.26 1540.03 1339.7 1544.89 1349.77 1549.75 1359.81 1576.52 1373.06 1596.57 1385.75 1616.63 1398.44 1629.4 1424.38 1634.26 1436.54 1639.12 1448.72 1628.16 1500.01 1628.16 1500.01L1606.29 1646.01 1572.85 1902.08C1572.85 1902.08 1520.37 1913.25 1496.98 1915.36 1473.59 1917.48 1348.35 1927.8 1341.36 1927.8 1334.36 1927.8 1257.47 1929.38 1248.33 1927.8 1239.22 1926.22 1226.75 1921.99 1220.07 1916.69 1213.4 1911.39 1206.08 1899.77 1191.82 1891.57 1177.53 1883.36 1132.56 1851.89 1130.42 1845.8 1128.28 1839.71 1129.51 1828.35 1132.23 1822.26 1134.95 1816.16 1146.81 1804.8 1145.62 1796.6 1144.38 1788.39 1129.8 1773.84 1125.23 1769.07 1120.66 1764.31 1116.13 1758.5 1111.56 1753.48 1106.99 1748.46 1093.03 1736.03 1087.84 1727.82 1082.69 1719.62 1069.92 1703.74 1070.21 1696.61 1070.5 1689.47 1076.89 1685.75 1077.5 1681.8 1078.12 1677.83 1076.27 1659.58 1080.22 1655.1 1084.18 1650.62 1086.9 1642.67 1085.99 1637.65 1085.08 1632.63 1080.51 1614.1 1081.42 1605.39 1082.33 1596.65 1086.9 1591.09 1085.37 1586.08 1083.85 1581.06 1077.18 1576.83 1068.04 1576.54 1058.93 1576.29 1044.65 1578.91 1039.17 1577.08 1033.69 1575.22 1027.31 1572.85 1027.31 1566.22 1027.31 1559.6 1032.17 1551.93 1033.08 1546.66 1033.98 1541.35 1028.22 1537.91 1013.64 1536.33 999.056 1534.76 963.477 1532.11 960.141 1526.55 956.804 1521 947.991 1509.89 946.141 1499.31 944.328 1488.74 940.991 1471.54 937.945 1461.75 934.898 1451.97 929.748 1448.28 925.795 1443.76 921.841 1439.28 921.841 1427.63 921.551 1423.66 921.261 1419.68 922.168 1378.97 925.214 1373.66 928.261 1368.36 936.747 1366.53 936.457 1360.19 936.167 1353.84 934.934 1349.87 940.411 1345.89 945.887 1341.91 949.224 1338.22 953.467 1338.22 957.711 1338.22 978.383 1349.08 984.477 1349.33 990.569 1349.58 1004.24 1351.7 1010.92 1349.33 1017.59 1346.96 1016.07 1345.35 1023.68 1346.68 1031.3 1348 1039.79 1350.91 1045.88 1350.91 1051.97 1350.91 1058.35 1348 1053.49 1339.8 1048.63 1331.59 1046.5 1324.21 1048.34 1321.27 1050.16 1318.37 1072.06 1299.05 1076.92 1297.98 1081.78 1296.9 1112.79 1292.96 1117.94 1289.52 1123.09 1286.08 1139.81 1279.73 1141.66 1273.93 1143.48 1268.12 1152.29 1261.49 1159.29 1259.91 1166.29 1258.34 1174.49 1261.24 1187.87 1261.24 1201.25 1261.24 1218.55 1262.31 1223.45 1261.49 1228.31 1260.7 1233.17 1256.73 1234.69 1251.46 1236.21 1246.15 1232.88 1235.04 1231.35 1230.31 1229.83 1225.54 1227.69 1225.83 1229.54 1221.57 1231.35 1217.34 1230.45 1214.43 1226.49 1210.71 1222.54 1206.98 1214.34 1192.97 1208.58 1188.24 1202.81 1183.47 1195.52 1179.49 1197.04 1172.36 1198.57 1165.23 1206.15 1160.18 1203.43 1153.04 1200.71 1145.91 1196.14 1141.68 1200.71 1140.07 1205.28 1138.49 1215 1142.19 1218.62 1137.17 1222.29 1132.15 1225.01 1125.52 1230.48 1121.58 1235.96 1117.6 1247.49 1120.25 1249.34 1115.23 1251.16 1110.21 1246.01 1096.71 1240.53 1091.15 1235.05 1085.6 1229 1087.71 1226.86 1083.73 1224.72 1079.76 1223.19 1076.6 1225.95 1070.26 1228.67 1063.91 1230.52 1061.51 1234.76 1058.07 1239.01 1054.63 1239.91 1053.28 1246.01 1055.8 1252.1 1058.33 1255.44 1059.94 1258.16 1058.61 1260.88 1057.29 1269.58 1055.8 1269.58 1055.8Z" stroke="#0B4332" stroke-width="4.58333" stroke-miterlimit="8" fill="#009C6D" fill-rule="evenodd"/><path d="M1226.61 1083.9C1228.75 1087.88 1234.82 1085.76 1240.3 1091.33 1245.79 1096.89 1250.95 1110.39 1249.13 1115.44 1247.31 1120.47 1235.73 1117.81 1230.24 1121.79 1224.76 1125.78 1222.03 1132.38 1218.37 1137.41 1214.7 1142.43 1204.96 1138.74 1200.42 1140.32 1195.85 1141.9 1200.42 1146.13 1203.15 1153.31 1205.87 1160.45 1198.28 1165.51 1196.76 1172.65 1195.23 1179.79 1202.53 1183.77 1208.31 1188.55 1214.08 1193.32 1222.32 1207.35 1226.25 1211.05 1230.21 1214.75 1231.11 1217.69 1229.3 1221.92 1227.48 1226.16 1229.59 1225.91 1231.11 1230.68 1232.64 1235.45 1235.98 1246.58 1234.46 1251.85 1232.93 1257.13 1228.06 1261.12 1223.2 1261.91 1218.33 1262.7 1200.97 1261.65 1187.57 1261.65 1174.16 1261.65 1165.96 1258.74 1158.95 1260.32 1151.94 1261.91 1143.11 1268.54 1141.29 1274.36 1139.48 1280.17 1122.73 1286.56 1117.54 1289.97 1112.38 1293.42 1081.33 1297.4 1076.46 1298.44 1071.6 1299.52 1049.66 1318.83 1047.84 1321.77 1046.03 1324.68 1048.13 1332.1 1053 1340.32 1057.87 1348.54 1051.47 1351.45 1045.37 1351.45 1039.27 1351.45 1030.77 1348.54 1023.14 1347.21 1015.52 1345.88 1017.04 1347.46 1010.36 1349.87 1003.68 1352.24 989.948 1350.12 983.882 1349.87 977.817 1349.61 957.078 1338.74 952.828 1338.74 948.579 1338.74 945.201 1342.44 939.753 1346.42 939.753 1346.42 937.029 1348.19 936.303 1350.28 935.613 1352.36 935.431 1353.5 935.431 1353.5 935.431 1353.5 932.38 1352.93 929.656 1351.64 926.932 1350.34 924.244 1348.92 923.373 1347.78 922.501 1346.67 921.157 1343.67 921.193 1341.93 921.193 1340.23 921.193 1337.63 920.54 1336.24 919.85 1334.85 917.598 1330.9 916.762 1329.57 915.963 1328.21 915.673 1325.5 915.854 1324.39 916.036 1323.28 915.092 1319.9 914.038 1318.7 912.949 1317.5 910.515 1315.6 907.537 1314.4 904.523 1313.2 900.382 1311.43 898.53 1310.01 896.677 1308.59 894.643 1307.32 893.191 1304.61 891.738 1301.89 891.157 1300.62 890.721 1299.33 890.285 1298.03 888.941 1292.56 888.76 1290.22 888.578 1287.89 888.796 1282.04 888.941 1280.49 889.086 1278.94 889.232 1274.8 888.941 1273.5 888.687 1272.21 887.597 1268.45 885.745 1266.58 883.929 1264.72 881.714 1262.38 876.447 1260.7 871.18 1259.06 864.934 1257.26 864.934 1257.26L862.5 1256.63C862.5 1256.63 878.445 1250.21 887.271 1247.75 896.096 1245.28 920.467 1242.12 922.719 1239.72 925.007 1237.35 923.99 1231.12 920.685 1224.96 917.38 1218.76 921.666 1213.64 924.68 1212.76 927.731 1211.87 930.782 1216.46 937.683 1217.69 944.584 1218.92 949.669 1217.15 951.485 1214.15 953.301 1211.15 952.502 1202.14 951.884 1195.44 951.267 1188.74 951.485 1185.54 957.55 1183.96 963.652 1182.38 969.717 1185.2 971.969 1181.31 974.185 1177.42 987.987 1157.48 996.921 1152.71 1005.86 1147.93 1052.53 1129.76 1059.03 1124.99 1065.53 1120.21 1064.91 1111.05 1072.03 1105.2 1079.15 1099.39 1111 1081.88 1118.52 1079.06 1126.04 1076.25 1130.29 1072.17 1137.59 1072.52 1144.89 1072.87 1149.36 1072.52 1155.24 1077.99 1161.13 1083.46 1168.83 1090.35 1175.94 1095.81 1183.06 1101.28 1183.86 1102.36 1191.56 1102.36 1199.26 1102.36 1207.58 1103.24 1211.65 1100.43 1215.71 1097.62 1215.71 1094.96 1217.93 1092.12 1220.15 1089.3 1226.43 1083.87 1226.43 1083.87Z" stroke="#0E5640" stroke-width="4.58333" stroke-miterlimit="8" fill="#BCFFBB" fill-rule="evenodd"/><path d="M863.055 1256.11C863.055 1256.11 878.968 1249.7 887.775 1247.24 896.583 1244.77 920.905 1241.62 923.152 1239.22 925.435 1236.85 924.42 1230.63 921.122 1224.47 917.824 1218.28 922.101 1213.17 925.109 1212.28 928.154 1211.4 931.198 1215.98 938.085 1217.21 944.972 1218.44 950.047 1216.67 951.859 1213.67 953.671 1210.67 952.874 1201.67 952.257 1194.98 951.641 1188.28 951.859 1185.1 957.912 1183.52 964.001 1181.94 970.054 1184.75 972.302 1180.86 974.513 1176.98 988.286 1157.06 997.203 1152.29 1006.12 1147.52 1052.7 1129.36 1059.18 1124.6 1065.67 1119.83 1065.06 1110.67 1072.16 1104.83 1079.26 1099.02 1111.05 1081.52 1118.56 1078.71 1126.06 1075.9 1130.3 1071.83 1137.58 1072.18 1144.87 1072.53 1149.33 1072.18 1155.2 1077.64 1161.07 1083.1 1168.76 1089.99 1175.86 1095.45 1182.96 1100.91 1183.76 1101.99 1191.45 1101.99 1199.13 1101.99 1207.43 1102.87 1211.49 1100.06 1215.55 1097.25 1215.55 1094.6 1217.76 1091.76 1219.97 1088.95 1226.24 1083.51 1226.24 1083.51 1226.24 1083.51 1223.85 1078.75 1223.81 1077.17 1223.81 1075.59 1224.18 1071.14 1226.71 1066.94 1229.25 1062.74 1230.74 1060.72 1232.95 1058.88 1235.16 1057.05 1237.3 1055.19 1238.31 1054.84 1239.33 1054.5 1240.38 1051.69 1238.31 1048.31 1236.25 1044.93 1224.83 1034.22 1219.54 1031.76 1214.28 1029.3 1204.35 1025.41 1196.85 1025.07 1189.34 1024.72 1177.2 1024.37 1173.98 1021.88 1170.75 1019.41 1159.4 1008.65 1155.56 997.342 1151.72 986.038 1147.66 975.112 1144.44 970.186 1141.21 965.26 1133.09 956.261 1129.25 956.261 1125.41 956.261 1115.47 958.913 1111.23 961.913 1106.99 964.913 1100.11 965.26 1097.24 963.839 1094.42 962.418 1086.69 958.029 1080.03 958.029 1073.36 958.029 1065.85 960.145 1062.01 958.029 1058.17 955.914 1052.91 951.682 1052.91 946.567 1052.91 941.452 1054.15 934.758 1050.09 933.684 1046.03 932.61 1040.99 931.758 1035.52 934.568 1030.04 937.378 1021.52 944.262 1015.87 941.104 1010.22 937.915 1003.73 931.758 996.623 925.221 989.519 918.685 981.218 912.528 973.317 911.801L965.415 911.107C965.415 911.107 954.468 910.917 948.415 908.802 942.326 906.686 943.74 904.918 933.446 905.802 923.115 906.686 918.259 909.149 911.589 909.149 904.92 909.149 895.605 903.149 888.283 902.265 880.997 901.381 873.712 899.613 864.179 901.034 854.646 902.455 837.031 905.107 828.549 906.496 820.031 907.917 815.79 910.191 807.091 908.612 798.392 907.033 795.565 904.034 789.077 901.918 782.589 899.802 769.649 900.15 762.545 903.149 755.441 906.149 726.48 916.19 717.78 919.38 709.081 922.569 705.819 930.495 695.707 931.726 685.594 932.958 675.264 930.653 670.189 933.147 665.115 935.642 656.198 941.799 647.1 945.493 638.003 949.188 625.643 953.956 622.815 954.84 619.988 955.724 619.771 957.303 617.741 959.419 615.711 961.534 613.5 965.544 613.5 965.544 613.5 965.544 620.496 969.112 625.244 970.439 629.992 971.765 637.169 973.47 640.54 974.102 643.911 974.733 654.277 976.501 655.799 976.817 657.322 977.133 662.251 978.049 664.861 980.291 667.471 982.501 671.53 987.237 673.56 989.1 675.59 990.963 679.505 993.963 681.317 994.974 683.129 995.984 686.718 997.626 688.675 999.268 690.632 1000.91 695.199 1005.93 696.214 1007.51 697.229 1009.09 699.802 1013.7 700.672 1016.07 701.542 1018.43 703.101 1023.68 703.282 1025.76 703.463 1027.88 703.137 1032.64 703.463 1034.82 703.79 1037.03 705.131 1042.97 706.254 1045.65 707.378 1048.34 709.988 1053.93 712.199 1056.61 714.373 1059.29 716.476 1061.76 719.339 1063.62 722.166 1065.52 727.458 1068.45 730.032 1069.68 732.605 1070.92 736.157 1072.59 737.208 1073.38 738.296 1074.2 740.289 1075.62 739.601 1076.98 738.912 1078.37 737.716 1080.32 734.2 1082.63 730.684 1084.97 723.689 1088.95 721.985 1089.83 720.245 1090.71 715.642 1092.8 712.924 1095.7 710.205 1098.64 707.414 1102.18 706.254 1104.42 705.094 1106.66 702.63 1112.75 702.195 1114.11 701.76 1115.47 700.382 1120.46 700.02 1121.75 699.694 1123.05 698.316 1128.76 698.099 1129.71 697.881 1130.66 697.628 1131.95 697.628 1131.95 697.628 1131.95 697.881 1134.07 697.41 1135.77 696.939 1137.48 695.235 1142.25 694.003 1144.33 692.807 1146.41 690.596 1149.82 689.001 1151.37 687.406 1152.92 684.796 1155.35 684.325 1156.52 683.854 1157.69 684.651 1158.22 685.123 1158.76 685.63 1159.27 687.007 1159.87 687.805 1160.15 688.602 1160.43 691.393 1161.22 691.937 1161.32 692.481 1161.41 695.815 1161.82 698.352 1161.92 700.89 1162.01 702.521 1162.11 703.137 1162.55 703.753 1162.99 706.399 1164.92 706.798 1166.69 707.197 1168.49 707.595 1171.68 704.768 1179.66 701.941 1187.68 699.404 1195.83 699.078 1197.66 698.715 1199.46 698.099 1206.44 698.208 1208.68 698.316 1210.92 698.389 1222.04 698.389 1223.65 698.389 1225.23 698.497 1232.65 698.86 1235.65 699.222 1238.62 699.911 1245.09 700.201 1247.74 700.491 1250.4 701.47 1258.23 701.941 1260.12 702.412 1262.02 703.898 1266.03 704.297 1266.82 704.696 1267.6 706.472 1270.48 707.922 1271.17 709.372 1271.87 711.075 1272.53 712.67 1272.5 714.265 1272.5 717.744 1272.06 720.427 1271.36 723.109 1270.67 730.431 1268.52 730.431 1268.52 730.431 1268.52 736.701 1266.78 738.26 1266.53 739.818 1266.28 743.334 1265.74 747.611 1266.28 751.888 1266.78 758.014 1267.64 758.703 1267.73 759.391 1267.83 767.945 1268.71 767.945 1268.71 767.945 1268.71 771.389 1268.93 772.875 1268.55 774.361 1268.17 775.34 1267.95 775.738 1267.26 776.173 1266.56 778.312 1262.9 778.964 1261.98 779.617 1261.07 782.118 1258.04 783.604 1256.81 785.126 1255.57 788.497 1253.11 790.889 1252.01 793.282 1250.9 798.465 1248.75 800.857 1248.12 803.249 1247.49 807.49 1246.73 808.759 1246.64 810.027 1246.54 814.921 1246.48 817.856 1246.83 820.792 1247.17 831.231 1248.97 831.231 1248.97 831.231 1248.97 841.235 1251.09 842.141 1251.31 843.048 1251.53 851.203 1253.4 851.203 1253.4L858.09 1254.82 863.019 1255.89" stroke="#0E5640" stroke-width="4.58333" stroke-miterlimit="8" fill="#BCFFBB" fill-rule="evenodd"/><path d="M1087.51 1727.97C1082.35 1719.75 1069.57 1703.85 1069.86 1696.71 1070.15 1689.57 1076.54 1685.84 1077.16 1681.89 1077.77 1677.91 1075.92 1659.64 1079.88 1655.15 1083.84 1650.66 1086.56 1642.7 1085.65 1637.67 1084.75 1632.65 1080.17 1614.09 1081.08 1605.37 1081.99 1596.62 1086.56 1591.05 1085.04 1586.03 1083.51 1581 1076.83 1576.77 1067.68 1576.48 1058.56 1576.23 1044.26 1578.85 1038.77 1577.02 1033.29 1575.16 1026.9 1572.79 1026.9 1566.15 1026.9 1559.51 1031.76 1551.83 1032.67 1546.55 1033.58 1541.24 1027.81 1537.8 1013.21 1536.22 998.611 1534.64 962.988 1531.98 959.647 1526.42 956.306 1520.86 947.482 1509.73 945.63 1499.14 943.814 1488.56 940.474 1471.33 937.423 1461.53 934.373 1451.74 929.217 1448.04 925.258 1443.52 921.3 1439.03 921.3 1427.37 921.01 1423.38 921.01 1423.38 900.057 1421.39 895.591 1423.38 891.124 1425.38 889.308 1428.22 893.376 1435.11 897.442 1442 898.641 1449.78 893.158 1453.13 887.674 1456.48 876.926 1459.67 864.361 1463.37 851.797 1467.06 839.196 1473.42 838.18 1477.84 837.163 1482.27 854.411 1488.78 853.794 1495.67 853.177 1502.56 834.512 1507.68 828.448 1510.49 822.347 1513.3 794.35 1534.51 786.034 1542.44 777.718 1550.38 768.785 1561.69 761.704 1562.39 754.623 1563.08 745.254 1558.85 740.824 1558.31 736.357 1557.77 732.508 1562.2 723.176 1565.74 713.843 1569.28 702.877 1572.44 698.846 1569.97 694.815 1567.51 697.212 1561.5 698.846 1558.31 700.48 1555.12 696.812 1547.72 689.514 1544.53 682.215 1541.34 675.715 1538.18 678.147 1531.48 680.581 1524.78 692.346 1520.54 689.114 1509.92 685.882 1499.33 676.949 1495.45 666.382 1499.68 655.815 1503.92 649.533 1507.8 639.002 1508.69 628.435 1509.57 629.27 1506.38 626.619 1501.1 623.968 1495.79 624.586 1493.68 614.454 1495.1 604.323 1496.52 603.088 1496.17 598.004 1492.29 592.92 1488.4 588.89 1480.46 581.99 1473.39 575.091 1466.34 574.074 1462.26 565.976 1462.07 557.878 1461.88 544.878 1463.3 543.062 1465.77 541.247 1468.23 544.079 1483.59 547.928 1486.6 551.778 1489.6 555.445 1499.49 555.445 1504.07 555.445 1508.66 557.66 1512.54 560.529 1516.78 563.362 1521.02 553.63 1519.97 563.362 1530.91 573.093 1541.84 579.594 1541.5 579.594 1547.5 579.594 1553.51 586.094 1554.74 582.825 1561.09 579.594 1567.44 576.725 1569.28 580.393 1575.16 584.06 1581.03 584.859 1584.76 581.809 1589 578.758 1593.23 573.275 1592.7 572.258 1600.31 571.242 1607.9 571.242 1615.14 570.225 1618.87 569.208 1622.56 570.007 1628.06 564.742 1628.22 559.476 1628.41 560.057 1630.53 563.507 1635.11 566.957 1639.7 579.521 1650.13 579.121 1656.13 578.722 1662.14 576.071 1667.07 580.538 1673.96 585.004 1680.85 585.622 1682.62 581.155 1686.5 576.689 1690.39 575.89 1693.55 578.105 1696.55 580.32 1699.56 583.37 1701.86 582.571 1705.91 581.772 1709.99 582.172 1715.26 586.239 1718.46 590.306 1721.65 589.471 1735.4 595.789 1736.47 602.072 1737.55 605.739 1740.71 607.337 1744.59 608.971 1748.48 609.152 1752.18 613.002 1753.95 616.851 1755.72 617.686 1756.42 619.284 1762.07 620.882 1767.73 624.549 1773.89 628.834 1779.55 633.083 1785.21 646.7 1799.49 653.6 1803.38 660.499 1807.27 673.681 1809.04 677.53 1808.85 681.379 1808.66 687.662 1810.27 691.111 1814.51 694.561 1818.74 705.528 1823.32 705.528 1823.32 705.528 1823.32 721.542 1833.22 727.642 1837.99 733.743 1842.76 735.341 1854.24 743.257 1859.89 751.173 1865.55 756.656 1863.97 759.089 1865.01 761.522 1866.09 763.556 1871.37 763.338 1873.83 763.12 1876.3 761.704 1882.49 768.603 1888.5 775.503 1894.5 781.785 1889.92 781.386 1895.73 780.986 1901.55 772.053 1905.09 778.553 1911.44 785.053 1917.8 789.919 1923.26 790.319 1925.76 790.718 1928.22 799.034 1934.23 801.467 1937.07 803.9 1939.89 807.35 1948.01 804.517 1950.85 801.685 1953.67 801.285 1958.44 804.118 1961.44 806.95 1964.45 807.168 1974.69 807.168 1979.11 807.168 1983.54 809.783 1989 814.975 1992.35 820.168 1995.7 826.16 1999.24 827.322 2002.06 828.484 2004.87 833.568 2018.55 836.001 2023.01 838.434 2027.47 845.333 2038.59 845.333 2038.59L849.001 2041.5C849.001 2041.5 850.926 2037.58 857.026 2033.28 863.09 2028.98 868.065 2024.94 871.261 2024.12 874.456 2023.3 873.512 2020.55 874.021 2018.08 874.529 2015.61 875.618 2010.62 875.909 2008.41 876.199 2006.16 876.671 2001.93 875.691 1999.81 874.711 1997.69 872.023 1992.67 871.479 1990.84 870.97 1989.03 870.062 1983.95 868.937 1981.83 867.811 1979.71 864.725 1974.97 863.345 1974.02 861.965 1973.07 861.819 1972.5 855.428 1972.63 849.037 1972.76 842.246 1973.14 838.615 1972.28 834.984 1971.43 831.316 1969.44 830.045 1967.38 828.774 1965.33 828.629 1960.27 828.883 1957.56 829.138 1954.84 830.191 1946.49 830.227 1944.66 830.263 1942.83 830.336 1941.12 829.428 1939.07 828.52 1937.01 827.104 1933.76 827.358 1933.06 827.612 1932.4 829.065 1930.85 830.844 1931.07 832.624 1931.29 835.71 1932.4 837.272 1932.68 838.833 1932.93 841.992 1933.34 846.858 1930.72 851.724 1928.1 856.481 1925.32 856.481 1925.32 856.481 1925.32 860.766 1922.73 862.255 1922.92 863.744 1923.1 871.007 1926.04 872.604 1926.39 874.166 1926.74 879.504 1927.59 881.138 1925.63 882.772 1923.67 887.13 1916.72 889.09 1913.12 891.052 1909.55 891.378 1906.29 891.052 1905.44 890.724 1904.58 887.021 1900.25 885.568 1898.52 884.116 1896.78 882.118 1893.3 881.792 1892.04 881.465 1890.77 882.409 1888.69 883.498 1887.14 884.551 1885.59 888.183 1880.88 889.054 1879.01 889.926 1877.12 891.487 1874.68 889.49 1871.78 887.493 1868.87 885.241 1866.12 883.026 1865.14 880.811 1864.16 877.979 1863.62 875.655 1863.15 873.331 1862.67 871.805 1861.54 870.026 1862.42 868.247 1863.31 868.247 1865.01 862.146 1864.92 856.082 1864.79 849.836 1864.32 847.73 1864.54 845.624 1864.76 840.104 1865.33 837.598 1868.33 835.093 1871.33 832.95 1875 831.97 1878.48 830.989 1881.95 830.118 1885.34 829.755 1887.83 829.392 1890.33 829.61 1892.79 828.448 1895.77 827.285 1898.74 825.47 1902.56 823.909 1904.27 822.347 1905.94 820.967 1907.78 818.716 1908.03 816.464 1908.28 813.378 1908.47 811.308 1906.92 809.274 1905.37 807.785 1902.91 806.769 1901.87 805.752 1900.79 801.939 1897.54 800.014 1896.11 798.09 1894.69 795.257 1892.67 793.914 1891.44 792.57 1890.2 788.503 1885.81 787.014 1883.79 785.489 1881.76 782.584 1877.69 781.967 1876.33 781.349 1874.97 781.023 1869.91 781.059 1868.33 781.095 1866.75 781.822 1858.76 782.148 1857.33 782.475 1855.91 783.31 1853.45 783.746 1851.26 784.182 1849.08 784.618 1844.44 784.109 1842.76 783.565 1841.09 782.838 1839.51 781.204 1839.22 779.57 1838.97 776.048 1839 772.416 1839.06 768.785 1839.13 766.316 1838.31 765.662 1837.8 765.009 1837.29 763.52 1836.22 764.609 1833.66 765.699 1831.1 767.514 1826.93 768.821 1825.73 770.165 1824.56 774.559 1821.49 777.065 1820.29 779.57 1819.09 784.255 1817.04 786.215 1816.4 788.176 1815.74 793.442 1814.41 796.928 1812.26 800.414 1810.08 807.713 1805.06 811.38 1801.74 815.048 1798.42 817.481 1796.4 818.098 1792.6 818.716 1788.81 818.244 1787.33 818.135 1785.84 818.026 1784.36 817.554 1776.39 817.771 1774.46 817.989 1772.53 818.425 1767.95 820.495 1765.52 822.565 1763.08 825.397 1760.52 827.14 1760.08 828.883 1759.64 830.953 1759.2 832.914 1760.24 834.839 1761.31 837.816 1763.24 839.668 1766.15 841.52 1769.06 843.191 1772.6 843.772 1774.46 844.316 1776.3 845.333 1780.63 846.205 1781.64 847.076 1782.65 848.02 1783.75 851.361 1782.62 854.702 1781.45 857.97 1779.11 858.878 1778.6 859.75 1778.07 861.529 1776.42 865.378 1776.9 869.227 1777.4 878.378 1778.6 879.94 1778.7 881.501 1778.79 885.496 1779.08 888.328 1777.43 891.16 1775.79 896.135 1772.16 897.442 1771.55 898.714 1770.95 901.255 1769.91 903.035 1770.32 904.85 1770.76 906.194 1771.14 907.429 1772.12 908.663 1773.1 910.878 1775.44 910.878 1775.44L912.258 1777.37C912.258 1777.37 912.912 1777.59 913.42 1778.16 913.929 1778.73 915.962 1781.54 915.962 1781.54 915.962 1781.54 917.996 1785.15 918.177 1785.52 918.359 1785.9 919.049 1787.99 919.303 1788.72 919.557 1789.44 921.809 1794.56 922.172 1795.23 922.535 1795.89 924.932 1800.25 925.222 1800.73 925.513 1801.17 927.837 1804.68 928.345 1805.31 928.89 1805.94 930.197 1807.74 932.339 1808.34 934.482 1808.94 935.426 1809.55 936.697 1809.8 937.968 1810.05 940.328 1810.49 941.599 1810.11 942.87 1809.73 945.703 1807.84 946.72 1807.05 947.736 1806.29 953.147 1802.09 953.619 1801.71 954.091 1801.33 960.627 1796.18 961.317 1795.64 962.007 1795.1 971.63 1787.55 972.248 1787.07 972.865 1786.6 980.563 1780.75 981.108 1780.37 981.653 1779.99 985.502 1777.37 988.189 1776.26 990.876 1775.16 999.083 1772.31 1000.64 1771.59 1002.21 1770.86 1005.58 1769.03 1007.36 1767.29 1009.14 1765.55 1012.45 1761.82 1012.92 1761.6 1013.39 1761.38 1014.84 1760.65 1018.47 1760.49 1022.11 1760.3 1028.1 1760.18 1029.44 1760.11 1030.75 1760.05 1034.42 1759.89 1036.67 1759.2 1038.95 1758.5 1043.31 1756.79 1044.47 1756.38 1045.64 1755.97 1048.25 1755.15 1049.49 1755.34 1050.72 1755.53 1053.99 1756.48 1055.19 1756.95 1056.39 1757.43 1060.49 1759.07 1061.4 1759.39 1062.27 1759.7 1065.68 1760.68 1066.26 1760.78 1066.88 1760.87 1068.73 1761.03 1070 1760.56 1071.27 1760.08 1074.65 1758.53 1078.68 1755.69 1082.75 1752.88 1085 1751.26 1086.23 1750.79 1087.47 1750.35 1093.53 1748.51 1094.77 1748.17 1096 1747.85 1100.22 1746.74 1100.22 1746.74L1104.5 1746.74C1104.5 1746.74 1097.82 1740.04 1097.16 1739.38 1096.51 1738.72 1091.94 1733.69 1091.03 1732.55 1090.12 1731.42 1087.69 1727.94 1087.69 1727.94Z" stroke="#0B4332" stroke-width="4.58333" stroke-miterlimit="8" fill="#009C6D" fill-rule="evenodd"/><path d="M921.5 1424.14C921.5 1424.14 900.549 1422.15 896.083 1424.14 891.617 1426.13 889.801 1428.97 893.868 1435.86 897.935 1442.74 899.133 1450.51 893.65 1453.86 888.167 1457.21 877.419 1460.4 864.856 1464.09 852.293 1467.79 839.693 1474.14 838.676 1478.56 837.659 1482.98 854.907 1489.49 854.29 1496.37 853.672 1503.26 835.009 1508.37 828.945 1511.18 822.844 1514 794.849 1535.19 786.534 1543.12 778.219 1551.04 769.286 1562.35 762.206 1563.04 755.125 1563.74 745.757 1559.51 741.327 1558.97 736.861 1558.43 733.012 1562.86 723.68 1566.39 714.349 1569.93 703.383 1573.09 699.352 1570.62 695.322 1568.16 697.718 1562.16 699.352 1558.97 700.986 1555.78 697.319 1548.39 690.02 1545.2 682.722 1542.01 676.222 1538.85 678.655 1532.16 681.088 1525.46 692.853 1521.23 689.621 1510.62 686.389 1500.04 677.457 1496.15 666.891 1500.38 656.324 1504.61 650.042 1508.5 639.512 1509.38 628.946 1510.27 629.781 1507.08 627.13 1501.8 624.479 1496.5 625.097 1494.38 614.966 1495.8 604.835 1497.22 603.601 1496.88 598.517 1492.99 593.434 1489.11 589.403 1481.18 582.505 1474.1 575.606 1467.06 574.589 1462.99 566.492 1462.8 558.394 1462.61 545.395 1464.03 543.58 1466.49 543.58 1466.49 523.899 1441.07 522.265 1437.03 520.631 1432.95 513.551 1420.98 506.434 1414.6 499.317 1408.25 484.938 1388.67 477.821 1385.83 470.704 1383.02 461.59 1385.29 457.523 1382.83 453.457 1380.36 449.608 1371.52 444.742 1371.36 439.876 1371.21 437.625 1374.17 431.561 1372.78 425.461 1371.36 412.099 1348.97 409.448 1344.36 406.797 1339.75 403.166 1337.82 405.999 1333.78 408.831 1329.7 413.914 1326.01 420.595 1326.89 427.277 1327.78 432.578 1330.59 436.209 1328.31 439.876 1326.01 440.893 1320.2 447.974 1319.66 455.091 1319.12 455.889 1319.12 463.987 1319.66 472.084 1320.2 478.983 1317.73 479.201 1311.01 479.419 1304.31 478.983 1291.58 481.016 1280.84 483.05 1270.07 483.667 1260.92 485.083 1257.03 486.499 1253.15 488.533 1245.91 483.268 1244.14 478.002 1242.38 472.12 1242.38 470.268 1237.45 468.453 1232.52 469.034 1216.98 460.138 1210.79 451.205 1204.6 442.672 1202.86 442.091 1198.25 441.474 1193.67 436.826 1186.25 432.251 1180.69 427.676 1175.13 419.179 1171.94 412.462 1171.44 405.781 1170.9 405.018 1163.76 404.946 1160.32 404.873 1156.88 398.155 1153.97 401.206 1148.13 404.256 1142.32 409.739 1134.64 410.32 1131.99 410.937 1129.34 409.339 1115.57 400.407 1115.06 391.474 1114.53 384.466 1111.37 383.849 1105.52 383.232 1099.71 386.282 1091.5 386.572 1082.75 386.863 1074 387.19 1066.61 381.416 1062.63 375.643 1058.65 362.244 1060.52 361.627 1056.54 361.01 1052.56 362.535 1049.65 368.635 1048.61 374.735 1047.54 381.126 1049.68 389.622 1047.03 398.155 1044.38 401.169 1038.82 407.269 1037.78 413.37 1036.7 420.341 1038.85 424.009 1042.55 427.676 1046.24 437.08 1053.41 445.613 1050.76 454.147 1048.1 458.395 1040.97 466.928 1040.43 475.461 1039.89 479.419 1042.29 479.419 1047.31 479.419 1052.34 482.759 1069.3 487.952 1072.46 493.108 1075.65 501.967 1074.32 509.266 1075.9 516.565 1077.48 519.614 1081.99 520.813 1086.76 522.047 1091.53 527.203 1093.4 529.019 1095.76 530.835 1098.13 525.352 1106.34 530.835 1109 536.317 1111.65 543.616 1106.34 547.864 1102.65 552.113 1098.95 557.922 1096.3 561.88 1101.32 565.838 1106.34 570.994 1117.75 572.519 1108.46 574.044 1099.21 569.469 1092.57 573.754 1093.11 578.002 1093.65 588.351 1095.76 589.876 1101.86 591.401 1107.96 601.422 1115.88 605.09 1115.88 608.757 1115.88 614.204 1124.88 617.254 1125.67 620.304 1126.46 636.862 1125.42 641.509 1125.42 646.157 1125.42 661.371 1123.56 664.131 1123.56 666.891 1123.56 677.529 1122.48 681.778 1124.09 686.026 1125.67 696.701 1128.58 697.609 1132.56 698.517 1136.54 694.269 1145.79 690.311 1150.56 686.353 1155.33 679.962 1157.98 688.168 1160.89 696.375 1163.8 701.857 1161.43 704 1163.8 706.142 1166.16 709.483 1166.99 705.234 1179.15 700.986 1191.34 697.609 1199.26 698.227 1209.31 698.844 1219.35 697.936 1229.68 698.844 1235.77 699.752 1241.87 700.986 1259.08 702.802 1263.57 704.617 1268.05 706.142 1275.22 718.016 1272.57 729.889 1269.92 732.613 1267.8 741.146 1266.76 749.679 1265.68 773.39 1272.57 776.149 1267.55 778.872 1262.53 782.54 1256.43 792.598 1251.95 802.656 1247.46 809.337 1246.64 817.543 1247.46 825.749 1248.25 839.148 1251.16 845.539 1252.77 851.929 1254.35 861.661 1255.96 866.853 1257.54 872.009 1259.11 880.869 1260.98 884.79 1264.67 888.748 1268.37 890.891 1271.81 889.656 1281.35 888.421 1290.89 891.181 1302.8 896.664 1307.82 902.147 1312.84 907.92 1313.63 911.878 1316.03 915.836 1318.4 916.744 1321.59 916.744 1325.82 916.744 1330.05 920.302 1333.24 921.573 1336.68 922.844 1340.13 921.029 1341.71 923.135 1346.22 925.277 1350.71 936.243 1353.58 936.243 1353.42 936.243 1353.27 936.533 1358.92 936.497 1360.44 936.497 1361.98 936.533 1364.48 933.156 1367.1 929.743 1369.72 925.967 1372.37 925.277 1374.27 924.587 1376.16 923.316 1384.25 923.207 1385.51 923.098 1386.78 922.408 1395.97 922.299 1397.77 922.19 1399.54 921.827 1408.44 921.827 1408.44L921.61 1417.25 921.61 1424.2Z" stroke="#0B4332" stroke-width="4.58333" stroke-miterlimit="8" fill="#009C6D" fill-rule="evenodd"/><path d="M405.98 1333.5C408.81 1329.43 413.891 1325.73 420.568 1326.61 427.245 1327.5 432.543 1330.31 436.172 1328.04 439.837 1325.73 440.853 1319.92 447.929 1319.38 455.042 1318.84 455.84 1318.84 463.932 1319.38 472.024 1319.92 478.919 1317.46 479.137 1310.73 479.355 1304.03 478.919 1291.3 480.951 1280.56 482.983 1269.79 483.6 1260.63 485.016 1256.75 486.431 1252.87 488.463 1245.63 483.201 1243.86 477.939 1242.09 472.061 1242.09 470.21 1237.17 468.396 1232.24 468.976 1216.7 460.085 1210.51 451.159 1204.32 442.631 1202.58 442.05 1197.97 441.433 1193.39 436.788 1185.97 432.216 1180.41 427.644 1174.85 419.152 1171.66 412.439 1171.16 405.762 1170.62 405 1163.48 404.927 1160.04 404.855 1156.6 398.142 1153.69 401.19 1147.85 404.238 1142.04 409.717 1134.36 410.298 1131.71 410.915 1129.05 409.318 1115.28 400.391 1114.78 391.465 1114.24 384.461 1111.08 383.844 1105.24 383.227 1099.43 386.275 1091.22 386.566 1082.47 386.856 1073.72 387.182 1066.33 381.413 1062.35 375.643 1058.37 362.252 1060.23 361.636 1056.25 361.019 1052.27 362.543 1049.37 368.639 1048.32 374.735 1047.25 381.122 1049.4 389.614 1046.75 398.142 1044.09 401.153 1038.53 407.25 1037.49 413.346 1036.42 420.314 1038.57 423.979 1042.26 427.644 1045.96 437.042 1053.13 445.57 1050.47 454.098 1047.82 458.344 1040.68 466.871 1040.14 475.399 1039.61 479.355 1042.01 479.355 1047.03 479.355 1052.05 482.693 1069.01 487.882 1072.17 493.035 1075.36 501.89 1074.03 509.184 1075.61 516.477 1077.19 519.526 1081.71 520.723 1086.48 521.957 1091.25 527.11 1093.11 528.924 1095.48 530.739 1097.85 525.259 1106.06 530.739 1108.71 536.218 1111.37 543.512 1106.06 547.758 1102.37 552.004 1098.67 557.81 1096.02 561.765 1101.04 565.721 1106.06 570.874 1117.46 572.398 1108.18 573.922 1098.92 569.349 1092.29 573.631 1092.83 577.877 1093.36 588.219 1095.48 589.743 1101.58 591.267 1107.67 601.283 1115.6 604.948 1115.6 608.613 1115.6 614.056 1124.6 617.105 1125.39 620.153 1126.18 636.7 1125.14 641.345 1125.14 645.99 1125.14 661.195 1123.27 663.953 1123.27 666.711 1123.27 677.343 1122.2 681.589 1123.81 685.835 1125.39 696.503 1128.3 697.411 1132.28 697.411 1132.28 700.132 1119.04 703.18 1110.83 706.229 1102.62 711.998 1094.94 719.002 1091.5 726.006 1088.06 740.884 1080.13 739.396 1076.15 737.872 1072.17 726.913 1070.05 717.514 1062.66 708.079 1055.24 702.31 1038.85 703.217 1030.38 704.124 1021.92 697.12 1003.38 684.964 997.284 672.807 991.189 671.573 986.419 666.094 981.682 660.614 976.912 657.893 977.702 639.93 974.259 622.004 970.817 614.093 966.837 611.045 964.216 607.996 961.562 598.271 958.657 591.594 960.52 584.917 962.384 575.482 967.658 572.724 965.005 570.003 962.352 568.478 957.33 562.999 953.887 557.52 950.445 550.842 947.792 548.085 948.866 545.363 949.939 545.036 955.751 536.545 954.677 528.017 953.603 503.087 951.234 496.7 945.423 490.314 939.611 481.786 925.051 483.02 913.649 484.253 902.247 486.975 896.972 486.975 890.877 486.975 884.781 483.02 879.506 478.774 881.086 474.528 882.665 466 890.624 461.755 890.877 457.509 891.129 453.227 897.225 450.215 902.247 447.167 907.269 448.691 912.291 438.059 912.291 427.426 912.291 417.084 909.922 406.415 906.479 395.783 903.037 385.441 902.784 377.203 902.784 368.966 902.784 352.89 907.016 341.314 903.574 329.775 900.131 324.876 894.572 321.864 888.476 318.815 882.381 308.8 871.547 302.413 867.315 296.026 863.083 297.551 861.219 275.632 859.387 253.751 857.523 238.836 859.135 231.833 859.387 224.829 859.64 224.539 861.756 215.104 864.409 205.669 867.062 202.62 865.483 190.174 861.219 177.691 856.987 167.348 860.966 166.151 861.472 164.917 862.009 162.195 880.801 162.195 886.897 162.195 892.993 158.24 903.321 153.377 911.249 148.515 919.176 144.559 926.062 139.697 933.737 134.834 941.412 131.786 947.507 134.544 948.044 137.265 948.581 141.838 938.506 145.176 939.296 148.515 940.085 151.853 946.434 158.567 947.223 165.244 948.013 170.433 945.644 178.017 946.686 185.638 947.76 195.944 950.129 196.27 954.614 196.56 959.099 198.992 965.195 206.322 970.217 213.616 975.239 214.233 971.543 214.233 981.082 214.233 990.62 214.233 1003.32 230.054 1018.67 245.876 1034.02 264.129 1062.6 265.327 1064.21 266.56 1065.79 270.189 1075.87 276.866 1083.26 283.543 1090.68 279.298 1098.35 285.975 1106.03 292.652 1113.7 296.933 1111.84 302.087 1120.84 307.239 1129.84 309.707 1140.71 311.195 1142.83 312.719 1144.94 323.061 1147.31 325.492 1150.75 327.924 1154.2 327.924 1166.36 327.633 1167.97 327.343 1169.55 327.633 1169.55 334.637 1176.43 341.641 1183.32 348.027 1187.3 344.362 1192.32 340.697 1197.34 339.79 1203.18 345.596 1207.42 351.366 1211.65 355.321 1207.16 359.277 1215.63 363.232 1224.09 374.191 1236 375.389 1240.23 376.622 1244.46 381.775 1250.02 384.824 1256.66 387.872 1263.29 396.69 1274.41 398.504 1276.52 400.319 1278.64 404.601 1279.43 404.274 1286.06 403.984 1292.69 395.746 1302.99 392.734 1306.43 389.686 1309.87 387.872 1313.07 390.594 1317.8 393.315 1322.57 398.795 1329.99 400.029 1331.29 401.262 1332.62 406.016 1333.5 406.016 1333.5Z" stroke="#0B4332" stroke-width="4.58333" stroke-miterlimit="8" fill="#009C6D" fill-rule="evenodd"/><path d="M610.855 963.979C607.803 961.327 598.068 958.422 591.384 960.285 584.7 962.148 575.255 967.421 572.495 964.769 569.77 962.116 568.245 957.096 562.759 953.654 557.274 950.213 550.59 947.561 547.829 948.634 545.105 949.708 544.778 955.517 536.278 954.444 527.741 953.37 502.785 951.002 496.392 945.193 489.999 939.383 481.462 924.827 482.697 913.429 483.932 902.062 486.657 896.758 486.657 890.664 486.657 884.57 482.697 879.297 478.447 880.876 474.197 882.455 465.66 890.411 461.41 890.664 457.16 890.917 452.874 897.01 449.859 902.031 446.807 907.051 448.333 912.071 437.69 912.071 427.046 912.071 416.693 909.703 406.013 906.262 395.37 902.82 385.017 902.567 376.771 902.567 368.525 902.567 352.433 906.798 340.845 903.357 329.293 899.915 324.389 894.358 321.374 888.264 318.323 882.171 308.297 871.341 301.903 867.11 295.51 862.879 297.036 861.016 275.095 859.184 253.191 857.322 238.261 858.932 231.25 859.184 224.239 859.437 223.948 861.553 214.503 864.205 205.059 866.857 202.007 865.278 189.548 861.016 177.051 856.785 166.699 860.763 165.5 861.269 165.5 861.269 176.761 840.619 178.25 834.273 179.776 827.926 177.015 825.526 178.541 819.464 180.066 813.37 180.684 809.424 189.511 811.539 198.338 813.655 219.044 820.538 229.688 822.116 240.331 823.695 272.915 832.441 284.794 833.483 296.673 834.557 296.963 836.672 303.974 833.736 310.985 830.831 354.83 807.813 358.79 800.393 362.749 792.974 369.433 778.165 374.918 772.356 380.404 766.546 384.981 766.799 394.716 766.799 404.451 766.799 445.863 764.146 453.782 762.315 461.701 760.452 468.385 754.39 471.727 747.759 475.069 741.129 472.017 732.667 486.039 724.994 500.061 717.322 508.561 717.069 510.705 712.301 512.848 707.534 513.429 699.861 507.98 693.515 502.495 687.168 474.487 666.803 468.385 657.268 462.282 647.732 436.128 617.295 432.749 612.811 429.407 608.328 426.065 599.329 427.591 597.213 429.117 595.098 475.686 587.678 492.76 584.521 509.796 581.332 521.384 579.753 525.017 578.711 528.686 577.638 534.135 580.826 531.12 584.521 528.068 588.215 515.608 607.822 514.991 612.306 514.373 616.789 509.506 632.419 516.226 636.397 522.91 640.375 534.171 648.837 536.024 652.532 537.84 656.226 538.457 670.529 547.902 669.992 557.347 669.455 625.24 668.666 636.174 668.666 647.108 668.666 667.233 669.203 675.152 670.529 683.071 671.855 701.633 678.201 711.695 678.738 721.758 679.275 725.39 677.159 729.35 679.812 733.309 682.464 743.371 693.294 754.923 695.946 766.475 698.598 807.305 695.946 819.474 697.019 831.643 698.093 839.562 701.503 846.573 705.229 853.584 708.923 850.242 714.227 860.886 718.206 871.529 722.184 880.974 720.574 887.367 721.395 893.761 722.184 901.68 719.816 905.639 725.878 909.599 731.972 908.364 740.687 912.323 747.57 916.283 754.453 929.36 756.032 935.753 759.473 942.147 762.915 944.29 768.472 940.912 772.04 937.569 775.608 896.158 800.741 881.846 806.582 867.533 812.391 834.659 824.042 827.03 830.926 819.402 837.809 810.284 836.735 808.758 845.229 807.232 853.691 811.192 871.151 807.523 877.498 803.854 883.844 798.986 892.306 793.828 894.421 788.67 896.537 776.792 900.515 776.792 900.515 776.792 900.515 773.013 900.61 769.853 901.241 766.693 901.873 759.573 903.925 755.032 906.104 750.491 908.282 736.869 912.64 736.869 912.64L724.627 916.965C724.627 916.965 717.253 919.396 715.401 920.47 713.548 921.544 708.971 925.017 707.518 926.122 706.101 927.259 702.396 930.132 699.635 930.858 696.875 931.584 694.586 932.247 685.577 932.121 676.568 931.995 673.335 931.363 669.412 933.542 665.489 935.72 658.805 939.667 656.771 940.772 654.773 941.846 649.578 944.498 646.309 945.792 643.039 947.087 634.321 950.529 633.05 951.034 631.778 951.508 626.003 953.749 624.114 954.381 622.225 955.012 620.735 955.517 619.827 956.654 618.919 957.822 616.994 960.032 616.485 960.696 615.977 961.359 614.16 964.137 614.16 964.137L613.107 965.463 610.891 964.042Z" stroke="#0E5640" stroke-width="4.58333" stroke-miterlimit="8" fill="#BCFFBB" fill-rule="evenodd"/><path d="M530.897 584.79C527.847 588.487 515.396 608.11 514.779 612.597 514.162 617.084 509.298 632.725 516.013 636.707 522.693 640.688 533.946 649.157 535.797 652.854 537.612 656.55 538.229 670.865 547.668 670.328 557.106 669.79 624.952 669 635.879 669 646.806 669 666.916 669.538 674.83 670.865 682.744 672.192 701.293 678.543 711.349 679.08 721.404 679.618 725.034 677.5 728.991 680.155 732.948 682.809 743.003 693.647 754.547 696.302 766.09 698.956 806.893 696.302 819.053 697.376 831.214 698.45 839.128 701.863 846.134 705.592 853.14 709.32 849.8 714.597 860.437 718.579 871.073 722.56 880.511 720.949 886.9 721.77 893.289 722.56 901.203 720.19 905.159 726.257 909.116 732.356 907.882 741.077 911.839 747.965 915.796 754.854 928.864 756.434 935.253 759.878 941.642 763.322 943.783 768.884 940.407 772.454 937.068 776.025 895.685 801.178 881.382 807.023 867.08 812.838 834.227 824.497 826.604 831.386 818.981 838.274 809.869 837.2 808.345 845.7 806.82 854.169 810.777 871.642 807.111 877.994 803.444 884.345 798.58 892.814 793.425 894.931 793.425 894.931 785.874 897.775 784.858 898.154 783.842 898.501 778.07 900.492 778.07 900.492L776.436 901.029C776.436 901.029 781.337 901.029 783.66 901.377 785.983 901.724 789.867 902.736 790.666 903.052 791.465 903.368 796.22 905.58 797.019 905.927 797.817 906.306 802.21 908.044 803.771 908.423 805.295 908.803 810.232 909.845 813.027 909.656 815.823 909.466 821.631 908.36 824.063 907.855 826.495 907.349 838.22 905.453 838.22 905.453 838.22 905.453 850.454 903.589 850.853 903.526 851.252 903.462 862.615 901.756 863.195 901.693 863.776 901.63 871.291 900.808 875.066 901.156 878.841 901.503 888.679 902.799 889.804 903.052 890.929 903.304 896.883 905.264 897.972 905.706 899.061 906.148 906.067 908.866 907.954 909.213 909.806 909.561 913.291 909.908 916.703 909.213 920.152 908.55 926.976 907.159 927.702 907.033 928.428 906.907 935.362 906.148 936.378 906.117 937.395 906.085 940.625 905.99 941.968 906.496 943.312 906.97 946.76 908.739 948.067 909.15 949.338 909.593 953.004 910.54 955.509 910.825 958.013 911.109 965.165 911.552 966.326 911.678 967.488 911.773 972.606 912.215 973.623 912.342 974.639 912.468 977.689 913.068 979.358 913.764 981.028 914.459 985.602 916.797 987.671 918.314 989.777 919.831 993.879 923.148 993.879 923.148L998.852 927.635C998.852 927.635 1004.55 932.849 1005.57 933.734 1006.58 934.619 1012.1 939.137 1013.48 940.022 1014.86 940.938 1017.4 942.518 1019.04 942.423 1020.67 942.329 1022.96 942.297 1026.59 940.275 1030.22 938.253 1034.75 935.472 1036.02 934.903 1037.33 934.334 1039.76 933.449 1041.22 933.323 1042.67 933.197 1045.5 933.07 1047.89 933.639 1050.29 934.208 1051.63 934.334 1052.36 935.756 1053.09 937.178 1053.34 938.158 1053.23 939.074 1053.12 939.959 1053.19 944.951 1053.16 945.583 1053.16 946.215 1053.09 948.68 1053.67 949.944 1054.25 951.208 1055.19 953.009 1056.64 954.368 1058.09 955.727 1061.33 958.286 1062.6 958.728 1063.87 959.171 1064.92 959.613 1067.53 959.487 1070.15 959.36 1075.85 958.728 1077.48 958.665 1079.11 958.602 1081.58 958.507 1083.07 958.792 1084.56 959.076 1087.61 959.866 1089.2 960.498 1090.8 961.13 1093.71 962.426 1094.87 963.057 1096.07 963.658 1097.66 964.764 1099.3 964.953 1100.93 965.143 1103.4 965.175 1105.47 964.827 1107.54 964.479 1110.04 963.405 1111.06 962.71 1112.07 962.046 1115.09 960.372 1117.05 959.676 1119.01 958.981 1124.24 957.401 1126.23 957.117 1128.23 956.833 1129.83 956.422 1131.2 957.18 1132.58 957.938 1135.31 959.898 1136.58 961.13 1137.85 962.362 1141.59 966.502 1142.02 967.039 1142.46 967.576 1144.42 970.199 1144.85 970.862 1145.25 971.526 1147.25 975.318 1147.61 976.076 1147.98 976.835 1151.9 986.567 1152.48 988.147 1153.06 989.727 1155.6 997.121 1156.07 998.322 1156.51 999.522 1158.43 1003.63 1159.16 1004.83 1159.88 1006.03 1164.28 1012.35 1166.31 1014.56 1168.34 1016.78 1172.41 1020.79 1172.99 1021.29 1173.57 1021.8 1174.88 1023.09 1176.98 1023.6 1179.09 1024.11 1183.48 1024.77 1184.82 1024.9 1186.16 1025.02 1192.23 1025.4 1193.06 1025.43 1193.93 1025.46 1197.67 1025.59 1199.2 1025.78 1200.72 1026 1206.64 1027.3 1207.76 1027.65 1208.89 1027.99 1215.24 1030.27 1215.75 1030.49 1216.26 1030.71 1221.49 1033.11 1222.47 1033.78 1223.45 1034.44 1226.89 1037.09 1227.26 1037.38 1227.62 1037.69 1231.43 1041.01 1232.01 1041.55 1232.59 1042.09 1235.97 1045.44 1236.62 1046.16 1237.24 1046.86 1239.2 1049.32 1239.49 1050.21 1239.78 1051.09 1240.07 1052.96 1239.93 1053.56 1239.78 1054.12 1240.58 1054.73 1241.96 1055.04 1243.34 1055.36 1248.42 1057.38 1249.22 1057.7 1250.02 1058.01 1253.21 1059.15 1253.65 1059.24 1254.05 1059.34 1256.23 1059.69 1257.1 1059.37 1257.97 1059.05 1261.63 1057.85 1262.76 1057.6 1263.89 1057.35 1269.44 1056.24 1269.44 1056.24 1269.44 1056.24 1266.1 1051.25 1265.55 1050.18 1265.01 1049.07 1262.29 1042.65 1261.82 1040.25 1261.34 1037.85 1261.56 1036.3 1262.83 1034.34 1264.1 1032.39 1272.45 1021.17 1272.45 1021.17 1272.45 1021.17 1280.33 1011.34 1280.91 1010.65 1281.49 1009.95 1285.81 1005.21 1286.68 1004.23 1287.55 1003.25 1294.01 994.783 1294.74 993.771 1295.47 992.76 1303.74 980.721 1303.74 980.721 1303.74 980.721 1311.08 969.567 1312.42 966.691 1313.76 963.816 1315.98 960.024 1316.63 959.044 1317.28 958.065 1321.31 952.282 1321.6 951.84 1321.93 951.397 1328.86 941.981 1328.86 941.981L1337.72 930.574C1337.72 930.574 1342.62 924.128 1346.43 920.842 1350.24 917.524 1356.49 912.405 1359.86 910.572 1363.24 908.739 1366.51 907.191 1370.32 906.243 1374.13 905.295 1384.4 903.146 1385.67 902.894 1386.95 902.609 1392.35 901.377 1394.68 900.524 1396.96 899.671 1407.13 895.563 1408.33 895.026 1409.52 894.52 1417.22 891.107 1417.22 891.107L1423.5 888.263C1423.5 888.263 1389.12 887.031 1384.3 886.684 1379.47 886.336 1338.3 882.039 1328.57 882.039 1318.84 882.039 1309.08 884.156 1296.85 882.039 1284.61 879.921 1275.03 876.477 1263.49 875.94 1251.94 875.403 1240.51 875.94 1235.97 874.486 1231.43 873.033 1208.45 852.241 1198.69 847.469 1188.96 842.698 1150.15 813.438 1148.19 811.321 1146.23 809.204 1081.73 754.001 1073.34 747.776 1064.99 741.551 1050.69 731.755 1050.69 731.755 1050.69 731.755 990.757 684.895 983.896 678.922 977.035 672.95 952.859 657.593 943.602 654.433 934.309 651.242 898.262 633.768 890.058 628.491 881.854 623.182 801.084 573.004 791.174 569.307 781.3 565.61 727.285 553.16 718.936 551.548 710.586 549.968 674.685 544.533 674.685 544.533L659.184 541.5C659.184 541.5 635.589 554.487 621.468 557.931 607.31 561.375 581.464 567.727 574.167 569.054 566.871 570.381 548.612 573.541 545.127 574.078 541.642 574.615 536.596 574.995 534.926 575.784 533.256 576.574 531.877 576.922 531.804 577.175 531.732 577.428 529.699 579.292 530.098 579.829 530.498 580.366 531.441 580.935 531.623 581.535 531.804 582.136 530.897 584.79 530.897 584.79Z" stroke="#0E5640" stroke-width="4.58333" stroke-miterlimit="8" fill="#BCFFBB" fill-rule="evenodd"/><path d="M1191.47 1891.5C1191.47 1891.5 1194.51 1916.19 1191.47 1919.72 1188.42 1923.26 1179.1 1925.02 1177.9 1932.06 1176.67 1939.1 1180.73 1950.75 1179.54 1958.52 1178.3 1966.28 1174.68 1978.28 1165.75 1979.67 1156.83 1981.09 1143.45 1982.48 1138.19 1987.09 1132.93 1991.7 1128.87 2006.12 1118.32 2012.85 1107.76 2019.54 1091.15 2026.96 1088.72 2035.76 1086.29 2044.57 1085.89 2048.8 1088.72 2057.99 1091.55 2067.17 1085.57 2071.4 1086.73 2078.1 1087.89 2084.79 1088.29 2091.51 1088.72 2099.62 1089.12 2107.74 1088.1 2116.92 1086.58 2117.97 1085.06 2119.04 1105.33 2131.38 1116.28 2131.38 1127.24 2131.38 1152.37 2130.69 1160.46 2127.15 1168.55 2123.62 1174.24 2120.46 1181.93 2122.57 1189.62 2124.69 1187.19 2125.38 1201.37 2125.38 1215.55 2125.38 1227.7 2122.92 1237.86 2122.92 1248.01 2122.92 1277.97 2127.5 1286.09 2131.38 1294.18 2135.26 1309.59 2139.15 1319.31 2140.19 1329.03 2141.26 1418.51 2143.63 1423.08 2142.05 1427.65 2140.47 1430.69 2137.57 1440.99 2139.68 1451.33 2141.8 1460.14 2147.1 1465.29 2154.77 1470.44 2162.44 1476.24 2172.23 1486.25 2174.09 1496.3 2175.95 1507.22 2176.46 1512.4 2172.51 1517.55 2168.54 1535.11 2155.63 1535.11 2155.63L1542.33 2103.48 1556.62 2000.22 1569.13 1922.97 1572.5 1902.08C1572.5 1902.08 1554.08 1905.86 1548.16 1907 1542.25 1908.14 1512.04 1913.6 1504.75 1914.45 1497.46 1915.3 1463.15 1918.24 1459.67 1918.52 1456.19 1918.81 1423.18 1921.52 1423.18 1921.52L1377.31 1925.21C1377.31 1925.21 1343.07 1927.8 1341.04 1927.8 1339.01 1927.8 1308.72 1928.24 1308.72 1928.24L1277.21 1928.5C1277.21 1928.5 1255.41 1928.37 1252.47 1928.18 1249.53 1927.99 1242.97 1927.49 1235.64 1924.58 1228.32 1921.71 1224.07 1919.82 1219.14 1916.19 1214.21 1912.56 1212.25 1908.93 1208.44 1905.2 1204.63 1901.44 1200.35 1897.5 1197.74 1895.67 1195.13 1893.84 1191.47 1891.56 1191.47 1891.56Z" stroke="#0E5640" stroke-width="4.58333" stroke-miterlimit="8" fill="#BCFFBB" fill-rule="evenodd"/><path d="M1191.15 1891.76C1191.15 1891.76 1194.19 1916.48 1191.15 1920.02 1188.1 1923.56 1178.79 1925.33 1177.59 1932.37 1176.36 1939.42 1180.42 1951.08 1179.22 1958.86 1177.99 1966.63 1174.37 1978.64 1165.45 1980.04 1156.54 1981.46 1143.16 1982.85 1137.91 1987.46 1132.65 1992.08 1128.59 2006.52 1118.05 2013.25 1107.5 2019.95 1090.9 2027.38 1088.47 2036.2 1086.04 2045.02 1085.65 2049.25 1088.47 2058.45 1091.3 2067.65 1085.32 2071.88 1086.48 2078.58 1087.64 2085.28 1088.04 2092.01 1088.47 2100.14 1088.91 2108.26 1087.86 2117.46 1086.33 2118.5 1086.33 2118.5 1082.31 2113.35 1075.32 2112.81 1068.32 2112.27 1054.8 2112.56 1051.76 2113.89 1048.71 2115.21 1048.1 2116.79 1048.1 2116.79 1048.1 2116.79 1043.39 2102.1 1039 2099.69 1034.58 2097.32 1030.96 2101.27 1025.48 2094.8 1020.01 2088.32 1022.76 2084.08 1016.06 2081.02 1009.39 2077.98 1005.26 2077.82 1005.26 2072.92 1005.26 2068.03 1006.17 2060.88 1002.36 2060.88 998.554 2060.88 985.036 2068.31 982.608 2071.22 980.18 2074.13 980.469 2082.47 977.896 2087.65 975.323 2092.8 975.468 2096.53 969.089 2094.8 962.711 2093.09 952.092 2084.33 950.714 2078.9 949.337 2073.46 946.619 2067.11 940.675 2067.11 934.731 2067.11 923.061 2069.76 919.582 2068.18 916.103 2066.6 911.5 2058.48 909.869 2056.36 908.238 2054.25 904.795 2052.03 899.141 2052.38 893.488 2052.73 889.61 2055.29 889.102 2052.92 888.595 2050.55 888.885 2038.09 889.102 2034.21 889.32 2030.32 888.196 2025.39 882.506 2023.52 876.852 2021.66 873.699 2024.41 873.591 2021.22 873.482 2018.03 877.758 2004.62 875.91 2000.1 874.098 1995.62 871.235 1992.17 870.655 1986.86 870.075 1981.55 864.276 1972.73 860.724 1972.39 857.173 1972.04 838.29 1973.75 833.905 1970.58 829.483 1967.39 828.903 1966.22 828.903 1960.12 828.903 1954.02 831.187 1944.1 830.136 1940.4 829.085 1936.7 825.569 1932.59 828.903 1931.27 832.238 1929.94 834.376 1932.18 838.943 1932.72 843.509 1933.26 850.939 1928.23 854.744 1926.24 858.55 1924.25 860.362 1920.93 866.451 1923.87 872.539 1926.78 878.592 1927.98 881.165 1925.45 883.738 1922.92 893.161 1908.35 890.733 1904.4 888.305 1900.42 880.549 1894.86 881.926 1890.09 883.303 1885.31 892.4 1877.76 889.972 1872.61 887.544 1867.46 882.832 1863.85 878.447 1863.47 874.025 1863.06 871.452 1861.23 872.829 1858.98 874.207 1856.74 883.63 1843.62 884.826 1839.1 886.058 1834.62 883.449 1831.42 885.877 1827.85 888.305 1824.28 901.207 1818.18 904.252 1815.53 907.296 1812.87 909.724 1808.26 907.912 1803.2 906.1 1798.18 902.005 1791.82 905.629 1786.26 909.289 1780.7 911.863 1777.92 912.624 1777.51 913.385 1777.09 918.241 1784.4 919.002 1787.84 919.763 1791.29 926.903 1805.32 930.527 1807.31 934.188 1809.3 939.95 1810.88 942.814 1809.43 945.713 1807.97 974.707 1784.14 982.318 1779.09 989.929 1774.06 996.742 1773.4 1002.36 1770.33 1007.98 1767.3 1010.26 1763.19 1012.4 1761.45 1014.54 1759.74 1024.25 1760.12 1031.25 1759.74 1038.24 1759.33 1042.77 1756.05 1047.48 1755.1 1052.19 1754.18 1062.96 1761.45 1068.43 1760.53 1073.9 1759.62 1082.09 1751.94 1085.9 1750.48 1089.7 1749.03 1099.71 1746.5 1099.71 1746.5L1103.98 1746.5C1103.98 1746.5 1111.41 1753.99 1112.97 1755.79 1114.53 1757.63 1123.16 1767.58 1123.7 1768.18 1124.24 1768.75 1132.25 1777.19 1133.67 1778.83 1135.08 1780.48 1139.5 1785.94 1140.41 1787.33 1141.35 1788.73 1144.29 1793.43 1144.65 1795.33 1145.01 1797.23 1145.26 1800.61 1143.49 1803.96 1141.71 1807.31 1137.83 1813.09 1136.6 1814.8 1135.37 1816.51 1132.4 1820.11 1131.42 1822.86 1130.44 1825.61 1129.03 1831.87 1128.88 1834.05 1128.74 1836.23 1128.34 1840.12 1129.06 1843.02 1129.79 1845.96 1130.08 1847.2 1132.94 1849.82 1135.8 1852.44 1141.17 1856.9 1141.17 1856.9 1141.17 1856.9 1148.05 1862.24 1148.92 1862.9 1149.79 1863.57 1158.2 1869.73 1159.54 1870.71 1160.92 1871.69 1169.33 1877.6 1170.52 1878.42 1171.72 1879.24 1180.67 1885.25 1180.67 1885.25L1187.12 1889.39 1191 1891.79Z" stroke="#0B4332" stroke-width="4.58333" stroke-miterlimit="8" fill="#009C6D" fill-rule="evenodd"/><path d="M872.669 1859.35C874.047 1857.1 883.479 1843.96 884.676 1839.43 885.873 1834.9 883.298 1831.73 885.728 1828.15 888.159 1824.57 901.073 1818.46 904.12 1815.8 907.168 1813.14 909.598 1808.51 907.784 1803.44 905.97 1798.41 901.871 1792.04 905.499 1786.46 909.163 1780.89 911.738 1778.1 912.5 1777.69 912.5 1777.69 907.893 1769.49 901.218 1770.28 894.543 1771.07 890.734 1779.31 881.593 1778.77 872.487 1778.23 864.253 1776.11 861.967 1776.9 859.682 1777.69 851.012 1784.34 847.82 1783.01 844.627 1781.68 845.244 1774.78 840.963 1767.87 836.719 1760.96 831.241 1757.92 826.67 1760.3 822.1 1762.67 817.855 1766.67 817.855 1776.49 817.855 1786.31 819.996 1793.46 816.042 1797.58 812.087 1801.7 798.266 1813.23 790.793 1815.1 783.357 1816.97 769.499 1823.21 767.54 1827.83 765.581 1832.49 761.155 1837.65 768.919 1838.86 776.682 1840.06 783.066 1836.86 784.263 1842.56 785.497 1848.27 783.502 1852.64 782.595 1856.37 781.688 1860.08 779.874 1874.18 783.211 1878.55 786.549 1882.92 790.213 1888.62 795.509 1892.74 800.842 1896.86 806.755 1900.69 808.423 1904.14 810.092 1907.6 816.332 1909.85 820.576 1907.6 824.82 1905.35 829.101 1896.86 829.391 1892.07 829.681 1887.29 831.967 1875.22 836.247 1870.03 840.492 1864.86 846.296 1864.33 852.499 1864.71 858.739 1865.12 866.03 1865.37 868.171 1864.17 870.311 1862.96 872.633 1859.23 872.633 1859.23Z" stroke="#0E5640" stroke-width="4.58333" stroke-miterlimit="8" fill="#BCFFBB" fill-rule="evenodd"/><path d="M1048.5 2116.72C1048.5 2116.72 1043.77 2102.01 1039.37 2099.61 1034.93 2097.24 1031.3 2101.19 1025.8 2094.71 1020.31 2088.22 1023.08 2083.99 1016.35 2080.92 1009.62 2077.85 1005.51 2077.72 1005.51 2072.82 1005.51 2067.92 1006.42 2060.78 1002.6 2060.78 998.78 2060.78 985.214 2068.21 982.777 2071.12 980.34 2074.03 980.631 2082.37 978.049 2087.56 975.467 2092.75 975.612 2096.45 969.211 2094.71 962.809 2093 952.153 2084.24 950.771 2078.8 949.388 2073.36 946.66 2067.01 940.695 2067.01 934.731 2067.01 923.019 2069.66 919.527 2068.08 916.036 2066.5 911.417 2058.37 909.78 2056.25 908.143 2054.14 904.688 2051.92 899.014 2052.27 893.34 2052.62 889.449 2055.18 888.939 2052.81 888.43 2050.44 888.721 2037.98 888.939 2034.09 889.157 2030.2 888.03 2025.26 882.32 2023.4 876.646 2021.53 873.554 2023.02 870.208 2023.87 870.208 2023.87 849.695 2036.24 848.858 2041.01 848.058 2045.79 848.24 2048.6 853.223 2052.24 858.205 2055.87 871.808 2071.84 873.736 2073.71 875.664 2075.57 891.703 2087.05 893.449 2088.48 895.159 2089.9 921.091 2110.64 924.147 2114.38 927.202 2118.07 929.311 2123.93 929.311 2129.74 929.311 2135.56 929.311 2148.81 929.93 2155.45 930.548 2162.09 932.985 2163.93 933.894 2161.81 934.803 2159.69 934.512 2153.59 936.949 2153.05 939.386 2152.51 940.914 2154.63 946.078 2158.87 951.243 2163.1 953.098 2164.18 953.716 2168.42 954.335 2172.65 945.497 2170 943.351 2173.19 941.205 2176.39 943.533 2184.58 948.479 2185.9 953.426 2187.23 965.319 2188.02 968.956 2191.72 972.63 2195.42 975.648 2198.08 975.976 2201.53 976.267 2204.97 972.921 2213.19 974.448 2216.89 975.976 2220.59 985.105 2222.46 985.432 2228.28 985.723 2234.1 982.086 2236.5 982.086 2236.5 982.086 2236.5 1003.11 2224.83 1007.07 2220.06 1011.04 2215.28 1012.86 2205.48 1018.06 2202.03 1023.22 2198.58 1025.7 2200.17 1029.62 2197.26 1033.59 2194.35 1033.3 2184.54 1029 2178.44 1024.75 2172.34 1025.95 2162.82 1027.19 2159.63 1028.42 2156.43 1024.46 2145.84 1029 2142.93 1033.59 2140.02 1040.28 2140.56 1040.28 2137.62 1040.28 2134.68 1033.26 2132.18 1032.06 2129.46 1030.82 2126.74 1035.52 2124.53 1037.66 2123.29 1039.81 2122.06 1044.46 2119.85 1044.46 2119.85L1048.46 2116.68Z" stroke="#0B4332" stroke-width="4.58333" stroke-miterlimit="8" fill="#009C6D" fill-rule="evenodd"/><path d="M862.036 2181.28C862.036 2181.28 862.436 2187.34 865.597 2189.25 868.758 2191.17 873.808 2192.93 875.733 2195.03 877.659 2197.14 882.346 2201 882.346 2201 882.346 2201 890.266 2198.02 891.792 2197.04 893.318 2196.07 897.568 2190.45 892.809 2189.94 888.05 2189.41 885.906 2187.49 883.254 2187.05 880.602 2186.61 878.095 2185.48 877.15 2184.51 876.242 2183.54 876.424 2184.07 878.058 2181.28 879.694 2178.48 882.818 2178.04 883.545 2177.16 884.271 2176.28 885.07 2173.49 884.78 2172.32 884.489 2171.19 885.906 2163.72 881.437 2162.05 876.969 2160.39 874.135 2159.6 872.899 2160.2 871.664 2160.83 870.974 2163.87 872.173 2165.1 873.408 2166.32 877.041 2168.96 875.915 2170.53 874.789 2172.1 869.811 2175.37 869.121 2175.53 868.394 2175.72 862.727 2177 862.727 2177L862 2181.21Z" fill="#BCFFBB" fill-rule="evenodd"/><path d="M894.558 2180C894.558 2180 898.488 2180.35 899.667 2181.92 900.883 2183.48 902.562 2186.37 902.955 2187.53 903.348 2188.67 901.061 2192.18 900.561 2191.99 900.061 2191.8 895.88 2188.32 894.522 2187.1 893.164 2185.87 890.27 2184.21 890.27 2184.21 890.27 2184.21 889.663 2182.01 890.27 2181.76 890.877 2181.51 894.522 2180 894.522 2180Z" stroke="#FFFFFF" stroke-width="18.2767" stroke-miterlimit="8" fill="#BCFFBB" fill-rule="evenodd"/><path d="M118.998 952.691C118.998 952.691 124.097 950.824 124.725 951.014 125.353 951.204 131.08 954.021 132.152 955.919 133.223 957.818 133.186 961.015 132.558 962.376 131.93 963.737 128.974 965.699 125.982 964.75 122.989 963.832 118.555 962.946 118.112 960.509 117.631 958.072 116.67 956.014 117.114 955.128 117.557 954.242 118.961 952.691 118.961 952.691Z" stroke="#FFFFFF" stroke-width="18.2767" stroke-miterlimit="8" fill="#BCFFBB" fill-rule="evenodd"/><path d="M1715.5 1497C1715.5 1475.74 1732.74 1458.5 1754 1458.5 1775.26 1458.5 1792.5 1475.74 1792.5 1497 1792.5 1518.26 1775.26 1535.5 1754 1535.5 1732.74 1535.5 1715.5 1518.26 1715.5 1497Z" stroke="#EC8000" stroke-width="4.58333" stroke-miterlimit="8" fill="none" fill-rule="evenodd"/><path d="M1727.5 1497C1727.5 1482.36 1739.59 1470.5 1754.5 1470.5 1769.41 1470.5 1781.5 1482.36 1781.5 1497 1781.5 1511.64 1769.41 1523.5 1754.5 1523.5 1739.59 1523.5 1727.5 1511.64 1727.5 1497Z" stroke="#00A88F" stroke-width="4.58333" stroke-miterlimit="8" fill="#FFFFFF" fill-rule="evenodd"/><path d="M1742 1496.5C1742 1490.15 1747.15 1485 1753.5 1485 1759.85 1485 1765 1490.15 1765 1496.5 1765 1502.85 1759.85 1508 1753.5 1508 1747.15 1508 1742 1502.85 1742 1496.5Z" fill="#00619E" fill-rule="evenodd"/><path d="M1292.5 1368C1292.5 1346.74 1309.74 1329.5 1331 1329.5 1352.26 1329.5 1369.5 1346.74 1369.5 1368 1369.5 1389.26 1352.26 1406.5 1331 1406.5 1309.74 1406.5 1292.5 1389.26 1292.5 1368Z" stroke="#EC8000" stroke-width="4.58333" stroke-miterlimit="8" fill="none" fill-rule="evenodd"/><path d="M1303.5 1367.5C1303.5 1352.59 1315.59 1340.5 1330.5 1340.5 1345.41 1340.5 1357.5 1352.59 1357.5 1367.5 1357.5 1382.41 1345.41 1394.5 1330.5 1394.5 1315.59 1394.5 1303.5 1382.41 1303.5 1367.5Z" stroke="#00A88F" stroke-width="4.58333" stroke-miterlimit="8" fill="#FFFFFF" fill-rule="evenodd"/><path d="M1319 1367.5C1319 1361.15 1323.92 1356 1330 1356 1336.08 1356 1341 1361.15 1341 1367.5 1341 1373.85 1336.08 1379 1330 1379 1323.92 1379 1319 1373.85 1319 1367.5Z" fill="#00619E" fill-rule="evenodd"/><path d="M1026.5 1200C1026.5 1178.74 1043.74 1161.5 1065 1161.5 1086.26 1161.5 1103.5 1178.74 1103.5 1200 1103.5 1221.26 1086.26 1238.5 1065 1238.5 1043.74 1238.5 1026.5 1221.26 1026.5 1200Z" stroke="#EC8000" stroke-width="4.58333" stroke-miterlimit="8" fill="none" fill-rule="evenodd"/><path d="M1037.5 1199.5C1037.5 1184.59 1049.59 1172.5 1064.5 1172.5 1079.41 1172.5 1091.5 1184.59 1091.5 1199.5 1091.5 1214.41 1079.41 1226.5 1064.5 1226.5 1049.59 1226.5 1037.5 1214.41 1037.5 1199.5Z" stroke="#00A88F" stroke-width="4.58333" stroke-miterlimit="8" fill="#FFFFFF" fill-rule="evenodd"/><path d="M1053 1199C1053 1192.92 1058.15 1188 1064.5 1188 1070.85 1188 1076 1192.92 1076 1199 1076 1205.08 1070.85 1210 1064.5 1210 1058.15 1210 1053 1205.08 1053 1199Z" fill="#00619E" fill-rule="evenodd"/><path d="M315.5 999C315.5 977.737 332.737 960.5 354 960.5 375.263 960.5 392.5 977.737 392.5 999 392.5 1020.26 375.263 1037.5 354 1037.5 332.737 1037.5 315.5 1020.26 315.5 999Z" stroke="#EC8000" stroke-width="4.58333" stroke-miterlimit="8" fill="none" fill-rule="evenodd"/><path d="M327.5 999.5C327.5 984.588 339.365 972.5 354 972.5 368.636 972.5 380.5 984.588 380.5 999.5 380.5 1014.41 368.636 1026.5 354 1026.5 339.365 1026.5 327.5 1014.41 327.5 999.5Z" stroke="#00A88F" stroke-width="4.58333" stroke-miterlimit="8" fill="#FFFFFF" fill-rule="evenodd"/><path d="M342 999C342 992.925 347.149 988 353.5 988 359.851 988 365 992.925 365 999 365 1005.08 359.851 1010 353.5 1010 347.149 1010 342 1005.08 342 999Z" fill="#00619E" fill-rule="evenodd"/><path d="M644.5 1370C644.5 1348.74 661.737 1331.5 683 1331.5 704.263 1331.5 721.5 1348.74 721.5 1370 721.5 1391.26 704.263 1408.5 683 1408.5 661.737 1408.5 644.5 1391.26 644.5 1370Z" stroke="#EC8000" stroke-width="4.58333" stroke-miterlimit="8" fill="none" fill-rule="evenodd"/><path d="M655.5 1370.5C655.5 1355.59 667.588 1343.5 682.5 1343.5 697.412 1343.5 709.5 1355.59 709.5 1370.5 709.5 1385.41 697.412 1397.5 682.5 1397.5 667.588 1397.5 655.5 1385.41 655.5 1370.5Z" stroke="#00A88F" stroke-width="4.58333" stroke-miterlimit="8" fill="#FFFFFF" fill-rule="evenodd"/><path d="M671 1370C671 1363.92 676.149 1359 682.5 1359 688.851 1359 694 1363.92 694 1370 694 1376.07 688.851 1381 682.5 1381 676.149 1381 671 1376.07 671 1370Z" fill="#00619E" fill-rule="evenodd"/><path d="M778.5 1710C778.5 1688.74 795.513 1671.5 816.5 1671.5 837.487 1671.5 854.5 1688.74 854.5 1710 854.5 1731.26 837.487 1748.5 816.5 1748.5 795.513 1748.5 778.5 1731.26 778.5 1710Z" stroke="#EC8000" stroke-width="4.58333" stroke-miterlimit="8" fill="none" fill-rule="evenodd"/><path d="M789.5 1709.5C789.5 1694.59 801.588 1682.5 816.5 1682.5 831.412 1682.5 843.5 1694.59 843.5 1709.5 843.5 1724.41 831.412 1736.5 816.5 1736.5 801.588 1736.5 789.5 1724.41 789.5 1709.5Z" stroke="#00A88F" stroke-width="4.58333" stroke-miterlimit="8" fill="#FFFFFF" fill-rule="evenodd"/><path d="M805 1709C805 1702.93 809.925 1698 816 1698 822.075 1698 827 1702.93 827 1709 827 1715.08 822.075 1720 816 1720 809.925 1720 805 1715.08 805 1709Z" fill="#00619E" fill-rule="evenodd"/><path d="M986.5 1989C986.5 1967.74 1003.74 1950.5 1025 1950.5 1046.26 1950.5 1063.5 1967.74 1063.5 1989 1063.5 2010.26 1046.26 2027.5 1025 2027.5 1003.74 2027.5 986.5 2010.26 986.5 1989Z" stroke="#EC8000" stroke-width="4.58333" stroke-miterlimit="8" fill="none" fill-rule="evenodd"/><path d="M997.5 1988.5C997.5 1973.59 1009.59 1961.5 1024.5 1961.5 1039.41 1961.5 1051.5 1973.59 1051.5 1988.5 1051.5 2003.41 1039.41 2015.5 1024.5 2015.5 1009.59 2015.5 997.5 2003.41 997.5 1988.5Z" stroke="#00A88F" stroke-width="4.58333" stroke-miterlimit="8" fill="#FFFFFF" fill-rule="evenodd"/><path d="M1013 1988C1013 1981.92 1018.15 1977 1024.5 1977 1030.85 1977 1036 1981.92 1036 1988 1036 1994.07 1030.85 1999 1024.5 1999 1018.15 1999 1013 1994.07 1013 1988Z" fill="#00619E" fill-rule="evenodd"/><path d="M956.5 2155C956.5 2133.74 973.737 2116.5 995 2116.5 1016.26 2116.5 1033.5 2133.74 1033.5 2155 1033.5 2176.26 1016.26 2193.5 995 2193.5 973.737 2193.5 956.5 2176.26 956.5 2155Z" stroke="#EC8000" stroke-width="4.58333" stroke-miterlimit="8" fill="none" fill-rule="evenodd"/><path d="M967.5 2155C967.5 2140.36 979.589 2128.5 994.5 2128.5 1009.41 2128.5 1021.5 2140.36 1021.5 2155 1021.5 2169.64 1009.41 2181.5 994.5 2181.5 979.589 2181.5 967.5 2169.64 967.5 2155Z" stroke="#00A88F" stroke-width="4.58333" stroke-miterlimit="8" fill="#FFFFFF" fill-rule="evenodd"/><path d="M983 2154.5C983 2148.15 987.925 2143 994 2143 1000.08 2143 1005 2148.15 1005 2154.5 1005 2160.85 1000.08 2166 994 2166 987.925 2166 983 2160.85 983 2154.5Z" fill="#00619E" fill-rule="evenodd"/><path d="M0 0 0.0302442 0 0.0302442 246.479 337.259 246.479" stroke="#0B4332" stroke-width="4.58333" stroke-linecap="round" stroke-linejoin="round" stroke-miterlimit="10" fill="none" fill-rule="evenodd" transform="matrix(1 0 0 -1 1754.5 1497.98)"/><path d="M1330.5 1368.81 1330.5 920.972 1769.18 920.972 1769.18 921.5" stroke="#0B4332" stroke-width="4.58333" stroke-linecap="round" stroke-linejoin="round" stroke-miterlimit="10" fill="none" fill-rule="evenodd"/><path d="M1065.5 1198.66 1065.5 554.229 1384.68 554.229 1384.68 554.5" stroke="#0B4332" stroke-width="4.58333" stroke-linecap="round" stroke-linejoin="round" stroke-miterlimit="10" fill="none" fill-rule="evenodd"/><path d="M353.5 723.5 353.5 999.301" stroke="#0B4332" stroke-width="4.58333" stroke-miterlimit="8" fill="none" fill-rule="evenodd"/><path d="M0 0 316.724 0 316.724 88.3659 316.429 88.3659" stroke="#0B4332" stroke-width="4.58333" stroke-linecap="round" stroke-linejoin="round" stroke-miterlimit="10" fill="none" fill-rule="evenodd" transform="matrix(-1 1.22465e-16 1.22465e-16 1 681.929 1370.5)"/><path d="M0 0 310.214 0 310.214 182.285 309.737 182.285" stroke="#0B4332" stroke-width="4.58333" stroke-linecap="round" stroke-linejoin="round" stroke-miterlimit="10" fill="none" fill-rule="evenodd" transform="matrix(-1 1.22465e-16 1.22465e-16 1 816.237 1712.5)"/><path d="M0 0 239.593 0 239.593 184.46 240.753 184.46" stroke="#0B4332" stroke-width="4.58333" stroke-linecap="round" stroke-linejoin="round" stroke-miterlimit="10" fill="none" fill-rule="evenodd" transform="matrix(-1 1.22465e-16 1.22465e-16 1 1023.25 1987.5)"/><path d="M0 0 326.287 0 326.287 0.159875 652.573 0.159875" stroke="#0B4332" stroke-width="4.58333" stroke-linecap="round" stroke-linejoin="round" stroke-miterlimit="10" fill="none" fill-rule="evenodd" transform="matrix(1 0 0 -1 994.5 2154.66)"/><rect x="1384" y="452" width="362" height="70.9998" fill="#0E5640"/><text fill="#FFFFFF" font-family="Basis Grotesque Arabic Pro,Basis Grotesque Arabic Pro_MSFontService,sans-serif" font-weight="700" font-size="37" direction="rtl" writing-mode="rl-tb" transform="matrix(1 0 0 1 1506.09 495)" x="117.448"></text><path d="M1724.83 653 1590.17 653C1578.48 653 1569 643.523 1569 631.833L1569 526 1746 526 1746 631.833C1746 643.523 1736.52 653 1724.83 653Z" stroke="#D9D9D9" stroke-width="2.29167" stroke-miterlimit="8" fill="#F2F2F2" fill-rule="evenodd"/><path d="M1539.83 653 1405.17 653C1393.48 653 1384 643.523 1384 631.833L1384 526 1561 526 1561 631.833C1561 643.523 1551.52 653 1539.83 653Z" stroke="#D9D9D9" stroke-width="2.29167" stroke-miterlimit="8" fill="#F2F2F2" fill-rule="evenodd"/><text fill="#137758" font-family="Basis Grotesque Arabic Pro,Basis Grotesque Arabic Pro_MSFontService,sans-serif" font-weight="700" font-size="23" direction="rtl" writing-mode="rl-tb" transform="matrix(1 0 0 1 1617.38 561)" x="81.3542"></text><text fill="#137758" font-family="Basis Grotesque Arabic Pro,Basis Grotesque Arabic Pro_MSFontService,sans-serif" font-weight="700" font-size="23" direction="rtl" writing-mode="rl-tb" transform="matrix(1 0 0 1 1428.58 561)" x="85.9375"></text><rect x="1766" y="819" width="363" height="69.9998" fill="#0E5640"/><text fill="#FFFFFF" font-family="Basis Grotesque Arabic Pro,Basis Grotesque Arabic Pro_MSFontService,sans-serif" font-weight="700" font-size="37" direction="rtl" writing-mode="rl-tb" transform="matrix(1 0 0 1 1892.67 862)" x="109.427"></text><path d="M2107.67 1020 1973.33 1020C1961.55 1020 1952 1010.45 1952 998.666L1952 892 2129 892 2129 998.666C2129 1010.45 2119.45 1020 2107.67 1020Z" stroke="#D9D9D9" stroke-width="2.29167" stroke-miterlimit="8" fill="#F2F2F2" fill-rule="evenodd"/><path d="M1921.67 1020 1787.33 1020C1775.55 1020 1766 1010.45 1766 998.666L1766 892 1943 892 1943 998.666C1943 1010.45 1933.45 1020 1921.67 1020Z" stroke="#D9D9D9" stroke-width="2.29167" stroke-miterlimit="8" fill="#F2F2F2" fill-rule="evenodd"/><text fill="#137758" font-family="Basis Grotesque Arabic Pro,Basis Grotesque Arabic Pro_MSFontService,sans-serif" font-weight="700" font-size="23" direction="rtl" writing-mode="rl-tb" transform="matrix(1 0 0 1 1999.95 928)" x="81.3542"></text><text fill="#137758" font-family="Basis Grotesque Arabic Pro,Basis Grotesque Arabic Pro_MSFontService,sans-serif" font-weight="700" font-size="23" direction="rtl" writing-mode="rl-tb" transform="matrix(1 0 0 1 1811.15 928)" x="85.9375"></text><rect x="2067" y="1156" width="362" height="70.0001" fill="#0E5640"/><text fill="#FFFFFF" font-family="Basis Grotesque Arabic Pro,Basis Grotesque Arabic Pro_MSFontService,sans-serif" font-weight="700" font-size="37" direction="rtl" writing-mode="rl-tb" transform="matrix(1 0 0 1 2119.45 1199)" x="257.812"> </text><path d="M2407.67 1357 2274.33 1357C2262.55 1357 2253 1347.45 2253 1335.67L2253 1229 2429 1229 2429 1335.67C2429 1347.45 2419.45 1357 2407.67 1357Z" stroke="#D9D9D9" stroke-width="2.29167" stroke-miterlimit="8" fill="#F2F2F2" fill-rule="evenodd"/><path d="M2222.67 1357 2088.33 1357C2076.55 1357 2067 1347.45 2067 1335.67L2067 1229 2244 1229 2244 1335.67C2244 1347.45 2234.45 1357 2222.67 1357Z" stroke="#D9D9D9" stroke-width="2.29167" stroke-miterlimit="8" fill="#F2F2F2" fill-rule="evenodd"/><text fill="#137758" font-family="Basis Grotesque Arabic Pro,Basis Grotesque Arabic Pro_MSFontService,sans-serif" font-weight="700" font-size="23" direction="rtl" writing-mode="rl-tb" transform="matrix(1 0 0 1 2300.92 1265)" x="81.3542"></text><text fill="#137758" font-family="Basis Grotesque Arabic Pro,Basis Grotesque Arabic Pro_MSFontService,sans-serif" font-weight="700" font-size="23" direction="rtl" writing-mode="rl-tb" transform="matrix(1 0 0 1 2112.12 1265)" x="85.9375"></text><rect x="1642" y="2053" width="363" height="70.0002" fill="#0E5640"/><text fill="#FFFFFF" font-family="Basis Grotesque Arabic Pro,Basis Grotesque Arabic Pro_MSFontService,sans-serif" font-weight="700" font-size="37" direction="rtl" writing-mode="rl-tb" transform="matrix(1 0 0 1 1780.8 2096)" x="85.3646"></text><path d="M1983.83 2254 1849.17 2254C1837.48 2254 1828 2244.52 1828 2232.83L1828 2127 2005 2127 2005 2232.83C2005 2244.52 1995.52 2254 1983.83 2254Z" stroke="#D9D9D9" stroke-width="2.29167" stroke-miterlimit="8" fill="#F2F2F2" fill-rule="evenodd"/><path d="M1797.83 2254 1663.17 2254C1651.48 2254 1642 2244.52 1642 2232.83L1642 2127 1819 2127 1819 2232.83C1819 2244.52 1809.52 2254 1797.83 2254Z" stroke="#D9D9D9" stroke-width="2.29167" stroke-miterlimit="8" fill="#F2F2F2" fill-rule="evenodd"/><text fill="#137758" font-family="Basis Grotesque Arabic Pro,Basis Grotesque Arabic Pro_MSFontService,sans-serif" font-weight="700" font-size="23" direction="rtl" writing-mode="rl-tb" transform="matrix(1 0 0 1 1876.05 2162)" x="81.3542"></text><text fill="#137758" font-family="Basis Grotesque Arabic Pro,Basis Grotesque Arabic Pro_MSFontService,sans-serif" font-weight="700" font-size="23" direction="rtl" writing-mode="rl-tb" transform="matrix(1 0 0 1 1687.25 2162)" x="85.9375"></text><rect x="559" y="2122" width="362" height="70.0002" fill="#0E5640"/><text fill="#FFFFFF" font-family="Basis Grotesque Arabic Pro,Basis Grotesque Arabic Pro_MSFontService,sans-serif" font-weight="700" font-size="37" direction="rtl" writing-mode="rl-tb" transform="matrix(1 0 0 1 699.94 2165)" x="79.6354"></text><path d="M899.666 2323 765.334 2323C753.551 2323 744 2313.45 744 2301.67L744 2195 921 2195 921 2301.67C921 2313.45 911.448 2323 899.666 2323Z" stroke="#D9D9D9" stroke-width="2.29167" stroke-miterlimit="8" fill="#F2F2F2" fill-rule="evenodd"/><path d="M713.666 2323 580.334 2323C568.551 2323 559 2313.45 559 2301.67L559 2195 735 2195 735 2301.67C735 2313.45 725.448 2323 713.666 2323Z" stroke="#D9D9D9" stroke-width="2.29167" stroke-miterlimit="8" fill="#F2F2F2" fill-rule="evenodd"/><text fill="#137758" font-family="Basis Grotesque Arabic Pro,Basis Grotesque Arabic Pro_MSFontService,sans-serif" font-weight="700" font-size="23" direction="rtl" writing-mode="rl-tb" transform="matrix(1 0 0 1 792.324 2231)" x="81.3542"></text><text fill="#137758" font-family="Basis Grotesque Arabic Pro,Basis Grotesque Arabic Pro_MSFontService,sans-serif" font-weight="700" font-size="23" direction="rtl" writing-mode="rl-tb" transform="matrix(1 0 0 1 603.525 2231)" x="85.9375"></text><rect x="308" y="1836" width="362" height="71.0001" fill="#0E5640"/><text fill="#FFFFFF" font-family="Basis Grotesque Arabic Pro,Basis Grotesque Arabic Pro_MSFontService,sans-serif" font-weight="700" font-size="37" direction="rtl" writing-mode="rl-tb" transform="matrix(1 0 0 1 393.516 1880)" x="190.208"> </text><path d="M648.833 2037 514.167 2037C502.477 2037 493 2027.52 493 2015.83L493 1910 670 1910 670 2015.83C670 2027.52 660.523 2037 648.833 2037Z" stroke="#D9D9D9" stroke-width="2.29167" stroke-miterlimit="8" fill="#F2F2F2" fill-rule="evenodd"/><path d="M462.833 2037 329.167 2037C317.477 2037 308 2027.52 308 2015.83L308 1910 484 1910 484 2015.83C484 2027.52 474.523 2037 462.833 2037Z" stroke="#D9D9D9" stroke-width="2.29167" stroke-miterlimit="8" fill="#F2F2F2" fill-rule="evenodd"/><text fill="#137758" font-family="Basis Grotesque Arabic Pro,Basis Grotesque Arabic Pro_MSFontService,sans-serif" font-weight="700" font-size="23" direction="rtl" writing-mode="rl-tb" transform="matrix(1 0 0 1 541.187 1945)" x="81.3542"></text><text fill="#137758" font-family="Basis Grotesque Arabic Pro,Basis Grotesque Arabic Pro_MSFontService,sans-serif" font-weight="700" font-size="23" direction="rtl" writing-mode="rl-tb" transform="matrix(1 0 0 1 352.387 1945)" x="85.9375"></text><rect x="155" y="1452" width="362" height="70.0001" fill="#0E5640"/><text fill="#FFFFFF" font-family="Basis Grotesque Arabic Pro,Basis Grotesque Arabic Pro_MSFontService,sans-serif" font-weight="700" font-size="37" direction="rtl" writing-mode="rl-tb" transform="matrix(1 0 0 1 220.924 1495)" x="230.885"> </text><path d="M495.666 1653 362.334 1653C350.551 1653 341 1643.45 341 1631.67L341 1525 517 1525 517 1631.67C517 1643.45 507.449 1653 495.666 1653Z" stroke="#D9D9D9" stroke-width="2.29167" stroke-miterlimit="8" fill="#F2F2F2" fill-rule="evenodd"/><path d="M310.666 1653 176.334 1653C164.551 1653 155 1643.45 155 1631.67L155 1525 332 1525 332 1631.67C332 1643.45 322.449 1653 310.666 1653Z" stroke="#D9D9D9" stroke-width="2.29167" stroke-miterlimit="8" fill="#F2F2F2" fill-rule="evenodd"/><text fill="#137758" font-family="Basis Grotesque Arabic Pro,Basis Grotesque Arabic Pro_MSFontService,sans-serif" font-weight="700" font-size="23" direction="rtl" writing-mode="rl-tb" transform="matrix(1 0 0 1 388.934 1561)" x="81.3542"></text><text fill="#137758" font-family="Basis Grotesque Arabic Pro,Basis Grotesque Arabic Pro_MSFontService,sans-serif" font-weight="700" font-size="23" direction="rtl" writing-mode="rl-tb" transform="matrix(1 0 0 1 200.134 1561)" x="85.9375"></text><rect x="40.9999" y="524" width="362" height="71.0002" fill="#0E5640"/><text fill="#FFFFFF" font-family="Basis Grotesque Arabic Pro,Basis Grotesque Arabic Pro_MSFontService,sans-serif" font-weight="700" font-size="37" direction="rtl" writing-mode="rl-tb" transform="matrix(1 0 0 1 183.382 568)" x="77.9167"></text><path d="M381.833 725 248.167 725C236.477 725 227 715.523 227 703.833L227 598 403 598 403 703.833C403 715.523 393.523 725 381.833 725Z" stroke="#D9D9D9" stroke-width="2.29167" stroke-miterlimit="8" fill="#F2F2F2" fill-rule="evenodd"/><path d="M196.833 725 62.1669 725C50.4767 725 40.9999 715.523 40.9999 703.833L40.9999 598 218 598 218 703.833C218 715.523 208.523 725 196.833 725Z" stroke="#D9D9D9" stroke-width="2.29167" stroke-miterlimit="8" fill="#F2F2F2" fill-rule="evenodd"/><text fill="#137758" font-family="Basis Grotesque Arabic Pro,Basis Grotesque Arabic Pro_MSFontService,sans-serif" font-weight="700" font-size="23" direction="rtl" writing-mode="rl-tb" transform="matrix(1 0 0 1 274.907 633)" x="81.3542"></text><text fill="#137758" font-family="Basis Grotesque Arabic Pro,Basis Grotesque Arabic Pro_MSFontService,sans-serif" font-weight="700" font-size="23" direction="rtl" writing-mode="rl-tb" transform="matrix(1 0 0 1 86.1071 633)" x="85.9375"></text></g></svg>